<svg width="153" height="146" viewBox="0 0 153 146" fill="none" xmlns="http://www.w3.org/2000/svg">
<g clip-path="url(#clip0_971_1995)">
<path d="M119.007 66.0584C119.841 62.8125 120.29 59.4376 120.29 55.9553C120.29 31.536 98.3841 11.7383 71.3438 11.7383C44.3036 11.7383 22.4189 31.5575 22.4189 55.9553C22.4189 59.4376 22.8682 62.8125 23.7025 66.0584C18.6966 73.7539 15.8086 82.7607 15.8086 92.3908C15.8086 120.679 40.6668 143.637 71.3438 143.637C102.021 143.637 126.879 120.701 126.879 92.3908C126.879 82.7607 123.991 73.7539 118.985 66.0584H119.007Z" fill="#075AA3"/>
<path d="M71.3664 144.28C40.3899 144.28 15.168 121 15.168 92.3892C15.168 83.0815 17.8848 73.9242 23.0191 65.9493C22.1847 62.6604 21.7783 59.307 21.7783 55.9752C21.7783 31.2334 44.0266 11.1133 71.3878 11.1133C98.7489 11.1133 120.997 31.2334 120.997 55.9752C120.997 59.307 120.569 62.6604 119.756 65.9708C124.891 73.9457 127.586 83.0815 127.586 92.4107C127.586 121.022 102.386 144.302 71.3878 144.302L71.3664 144.28ZM71.3664 12.403C44.7326 12.403 23.0832 31.9428 23.0832 55.9537C23.0832 59.264 23.5111 62.5959 24.3668 65.8848C24.4096 66.0567 24.3668 66.2502 24.2812 66.4007C19.1898 74.2252 16.4943 83.2105 16.4943 92.3677C16.4943 120.248 41.1172 142.948 71.3878 142.948C101.658 142.948 126.281 120.248 126.281 92.3677C126.281 83.189 123.586 74.2037 118.494 66.4007C118.366 66.2072 118.345 65.9708 118.452 65.7558C119.286 62.5099 119.692 59.2211 119.692 55.9537C119.692 31.9428 98.0216 12.403 71.4092 12.403H71.3664Z" fill="black"/>
<path d="M48.71 69.9911C59.1425 69.9911 67.5997 60.6558 67.5997 49.1401C67.5997 37.6244 59.1425 28.2891 48.71 28.2891C38.2775 28.2891 29.8203 37.6244 29.8203 49.1401C29.8203 60.6558 38.2775 69.9911 48.71 69.9911Z" fill="white"/>
<path d="M71.3673 143.634C93.2365 143.634 110.965 123.721 110.965 99.1586C110.965 74.5957 93.2365 54.6836 71.3673 54.6836C49.498 54.6836 31.7695 74.5957 31.7695 99.1586C31.7695 123.721 49.498 143.634 71.3673 143.634Z" fill="white"/>
<path d="M92.9096 69.9911C103.047 69.9911 111.264 60.6558 111.264 49.1401C111.264 37.6244 103.047 28.2891 92.9096 28.2891C82.7724 28.2891 74.5547 37.6244 74.5547 49.1401C74.5547 60.6558 82.7724 69.9911 92.9096 69.9911Z" fill="white"/>
<path d="M70.8096 60.5982L62.8516 56.0195H78.7677L70.8096 60.5982Z" fill="#FDF353"/>
<path d="M70.808 61.2649C70.701 61.2649 70.5726 61.2434 70.4871 61.1789L62.529 56.6003C62.2723 56.4498 62.144 56.1489 62.2295 55.8694C62.3151 55.59 62.5718 55.375 62.8713 55.375H78.766C79.0655 55.375 79.3222 55.5685 79.4078 55.8694C79.4934 56.1703 79.365 56.4498 79.1083 56.6003L71.1502 61.1789C71.1502 61.1789 70.9363 61.2649 70.8294 61.2649H70.808ZM65.3101 56.6862L70.808 59.8461L76.3059 56.6862H65.3101Z" fill="black"/>
<path d="M70.8096 51.2266L78.7677 55.8267H62.8516L70.8096 51.2266Z" fill="#FDF353"/>
<path d="M78.766 56.4704H62.8713C62.5718 56.4704 62.3151 56.277 62.2295 55.976C62.144 55.6966 62.2723 55.3956 62.529 55.2452L70.4871 50.6665C70.6796 50.5591 70.9363 50.5591 71.1289 50.6665L79.0869 55.2452C79.3436 55.3956 79.472 55.6966 79.3864 55.976C79.3008 56.2555 79.0441 56.4704 78.7446 56.4704H78.766ZM65.3101 55.1592H76.3059L70.808 51.9993L65.3101 55.1592Z" fill="black"/>
<path d="M82.6186 69.0671H59.0225C58.6589 69.0671 58.3594 68.7662 58.3594 68.4007C58.3594 68.0353 58.6589 67.7344 59.0225 67.7344H82.6186C82.9823 67.7344 83.2818 68.0353 83.2818 68.4007C83.2818 68.7662 82.9823 69.0671 82.6186 69.0671Z" fill="black"/>
<path d="M47.8338 119.111C46.9995 118.316 45.7587 118.273 44.7746 118.896C44.4965 119.068 44.197 119.176 43.8762 119.176C42.9135 119.176 42.0578 118.295 41.5016 116.94C41.1379 116.037 40.2822 115.457 39.3195 115.371C38.9986 115.371 38.6777 115.328 38.3569 115.328C37.33 115.328 36.4315 115.973 36.0251 116.919C35.4475 118.295 34.6131 119.154 33.6505 119.154C33.2654 119.154 32.9017 119.004 32.5595 118.746C31.554 117.972 30.1635 117.994 29.2008 118.832C26.0989 121.583 24.1094 125.711 24.1094 130.332C24.1094 138.63 30.5058 145.336 38.3569 145.336C46.2079 145.336 52.6043 138.608 52.6043 130.332C52.6043 125.883 50.7646 121.863 47.8124 119.111H47.8338Z" fill="#FDF353"/>
<path d="M38.356 146.001C30.1412 146.001 23.4453 138.972 23.4453 130.331C23.4453 125.688 25.3706 121.324 28.7507 118.336C29.9273 117.304 31.6815 117.261 32.9436 118.228C33.179 118.4 33.4143 118.508 33.6496 118.508C34.27 118.508 34.9331 117.82 35.4252 116.659C35.9386 115.434 37.0724 114.66 38.356 114.66C38.7196 114.66 39.0405 114.66 39.3828 114.703C40.6022 114.789 41.6718 115.563 42.1211 116.681C42.7415 118.164 43.6186 118.852 44.4529 118.357C45.715 117.562 47.2553 117.691 48.3035 118.658C51.4696 121.625 53.288 125.902 53.288 130.352C53.288 138.993 46.5921 146.023 38.3774 146.023L38.356 146.001ZM30.8899 118.852C30.4193 118.852 29.9701 119.002 29.6064 119.325C26.5045 122.055 24.7503 126.074 24.7503 130.331C24.7503 138.241 30.8472 144.69 38.356 144.69C45.8648 144.69 51.9617 138.241 51.9617 130.331C51.9617 126.225 50.293 122.313 47.3837 119.583C46.7847 119.024 45.8648 118.959 45.116 119.432C44.7096 119.669 44.3031 119.798 43.8753 119.798C42.6773 119.798 41.5863 118.83 40.9017 117.154C40.645 116.509 40.0032 116.057 39.2759 115.993C38.9764 115.993 38.6769 115.971 38.356 115.971C37.6072 115.971 36.9013 116.444 36.6232 117.154C35.9172 118.83 34.8476 119.798 33.6496 119.798C33.1362 119.798 32.6227 119.604 32.1521 119.26C31.7884 118.981 31.3392 118.83 30.9113 118.83L30.8899 118.852Z" fill="black"/>
<path d="M112.42 119.111C111.585 118.316 110.345 118.273 109.361 118.896C109.082 119.068 108.762 119.176 108.462 119.176C107.499 119.176 106.644 118.295 106.088 116.94C105.724 116.037 104.868 115.457 103.905 115.371C103.585 115.371 103.264 115.328 102.943 115.328C101.916 115.328 101.017 115.973 100.611 116.919C100.033 118.295 99.1991 119.154 98.2364 119.154C97.8514 119.154 97.4877 119.004 97.1454 118.746C96.1399 117.972 94.7494 117.994 93.7868 118.832C90.6848 121.583 88.6953 125.711 88.6953 130.332C88.6953 138.63 95.0917 145.336 102.943 145.336C110.794 145.336 117.19 138.608 117.19 130.332C117.19 125.883 115.351 121.863 112.398 119.111H112.42Z" fill="#FDF353"/>
<path d="M102.942 146.001C94.7271 146.001 88.0312 138.972 88.0312 130.331C88.0312 125.688 89.9566 121.324 93.3366 118.336C94.5132 117.304 96.2674 117.261 97.5296 118.228C97.7649 118.4 98.0002 118.508 98.2355 118.508C98.8559 118.508 99.5191 117.82 100.011 116.659C100.525 115.434 101.658 114.66 102.942 114.66C103.306 114.66 103.626 114.66 103.969 114.703C105.188 114.789 106.258 115.563 106.707 116.681C107.327 118.164 108.204 118.852 109.039 118.357C110.301 117.562 111.841 117.691 112.889 118.658C116.056 121.625 117.874 125.902 117.874 130.352C117.874 138.993 111.178 146.023 102.963 146.023L102.942 146.001ZM95.4973 118.852C95.0266 118.852 94.5774 119.002 94.2137 119.325C91.1118 122.055 89.3576 126.074 89.3576 130.331C89.3576 138.241 95.4545 144.69 102.963 144.69C110.472 144.69 116.569 138.241 116.569 130.331C116.569 126.225 114.9 122.313 111.991 119.583C111.392 119.024 110.472 118.959 109.723 119.432C109.317 119.669 108.91 119.798 108.483 119.798C107.285 119.798 106.194 118.83 105.509 117.154C105.252 116.509 104.611 116.057 103.883 115.993C103.584 115.993 103.284 115.971 102.963 115.971C102.215 115.971 101.509 116.444 101.209 117.154C100.503 118.83 99.4335 119.798 98.2355 119.798C97.7221 119.798 97.2087 119.604 96.738 119.26C96.3744 118.981 95.9251 118.83 95.4973 118.83V118.852Z" fill="black"/>
<path d="M30.9977 64.1221C26.3555 58.7696 1.6898 43.83 0.705739 53.7825C0.342064 57.5228 1.75398 62.2089 3.67931 66.6371C6.84542 73.9242 11.4448 80.5449 16.9855 86.2198L20.2158 89.5302" fill="#075AA3"/>
<path d="M20.2375 90.1955C20.0664 90.1955 19.8952 90.131 19.7669 90.002L16.5366 86.6917C10.7606 80.7588 6.22534 74.1166 3.10201 66.8939C0.748826 61.52 -0.27802 57.0703 0.0642617 53.717C0.256795 51.8683 1.21946 50.6001 2.8453 50.0627C6.86712 48.7729 14.269 52.2123 18.2908 54.3833C23.8315 57.3713 29.3935 61.2835 31.49 63.6911C31.7253 63.9705 31.7039 64.3789 31.4258 64.6154C31.1477 64.8518 30.7413 64.8303 30.506 64.5509C26.6553 60.1227 9.30587 49.3748 3.25176 51.3094C2.09656 51.6749 1.49757 52.4702 1.36921 53.8245C1.04832 56.9629 2.03238 61.176 4.3 66.3565C7.38054 73.4072 11.8088 79.9419 17.4779 85.7458L20.7081 89.0562C20.9649 89.3141 20.9649 89.7226 20.7081 89.9805C20.5798 90.1095 20.4086 90.174 20.2589 90.174L20.2375 90.1955Z" fill="black"/>
<path d="M108.762 66.8502C112.612 60.8958 134.968 42.5813 137.342 52.2975C138.241 55.9303 137.471 60.8099 136.187 65.453C134.048 73.127 130.432 80.3281 125.726 86.7339L122.988 90.4742" fill="#075AA3"/>
<path d="M123.008 91.1206C122.88 91.1206 122.73 91.0776 122.623 90.9917C122.324 90.7767 122.281 90.3683 122.495 90.0673L125.233 86.327C130.046 79.7708 133.512 72.6772 135.587 65.2611C137.106 59.8226 137.491 55.502 136.742 52.428C136.421 51.1168 135.715 50.4074 134.517 50.1925C128.228 49.1177 112.526 62.2517 109.338 67.1742C109.146 67.4752 108.739 67.5611 108.44 67.3677C108.14 67.1742 108.055 66.7658 108.247 66.4649C111.221 61.8862 127.543 47.6775 134.731 48.9027C136.421 49.1822 137.555 50.3 138.004 52.1056C138.817 55.3945 138.411 59.9301 136.849 65.605C134.753 73.1931 131.202 80.4372 126.303 87.1009L123.564 90.8412C123.436 91.0131 123.244 91.0991 123.03 91.0991L123.008 91.1206Z" fill="black"/>
<path d="M41.1587 63.0702C45.3648 63.0702 48.7745 61.4918 48.7745 59.5449C48.7745 57.5979 45.3648 56.0195 41.1587 56.0195C36.9527 56.0195 33.543 57.5979 33.543 59.5449C33.543 61.4918 36.9527 63.0702 41.1587 63.0702Z" fill="#FFDEFF"/>
<path d="M99.5415 64.121C103.748 64.121 107.157 62.5426 107.157 60.5956C107.157 58.6487 103.748 57.0703 99.5415 57.0703C95.3355 57.0703 91.9258 58.6487 91.9258 60.5956C91.9258 62.5426 95.3355 64.121 99.5415 64.121Z" fill="#FFDEFF"/>
<path d="M100.631 50.1487C100.267 50.1487 99.9678 49.8478 99.9678 49.4823C99.9678 46.258 97.3579 43.6355 94.149 43.6355C90.9401 43.6355 88.3303 46.258 88.3303 49.4823C88.3303 49.8478 88.0308 50.1487 87.6671 50.1487C87.3034 50.1487 87.0039 49.8478 87.0039 49.4823C87.0039 45.5271 90.1914 42.3242 94.1277 42.3242C98.0639 42.3242 101.251 45.5271 101.251 49.4823C101.251 49.8478 100.952 50.1487 100.588 50.1487H100.631Z" fill="black"/>
<path d="M54.1037 50.1487C53.74 50.1487 53.4405 49.8478 53.4405 49.4823C53.4405 46.258 50.8306 43.6355 47.6217 43.6355C44.4128 43.6355 41.8029 46.258 41.8029 49.4823C41.8029 49.8478 41.5034 50.1487 41.1397 50.1487C40.7761 50.1487 40.4766 49.8478 40.4766 49.4823C40.4766 45.5271 43.6641 42.3242 47.6003 42.3242C51.5365 42.3242 54.724 45.5271 54.724 49.4823C54.724 49.8478 54.4246 50.1487 54.0609 50.1487H54.1037Z" fill="black"/>
<path d="M72.1781 4.12483L72.7343 1.30887L70.1244 0.792969L69.4613 4.14633C52.283 4.57624 38.5703 12.9811 38.5703 23.3207H103.09C103.09 12.9811 89.3778 4.57624 72.1781 4.14633V4.12483Z" fill="#D33C3C"/>
<path d="M103.731 23.9445H37.9062V23.2781C37.9062 12.7021 51.4906 4.06078 68.9255 3.45889L69.6101 -0.0234375L73.5036 0.750414L72.9688 3.45889C90.2754 4.12527 103.731 12.7451 103.731 23.2566V23.923V23.9445ZM39.2326 22.6332H102.405C101.827 12.9601 88.7565 5.17857 72.1558 4.77014H71.3857L71.9633 1.80371L70.637 1.54576L69.9952 4.77014H69.4818C52.8811 5.20006 39.8102 12.9816 39.2326 22.6547V22.6332Z" fill="black"/>
<path d="M152.038 53.8239C149.642 63.669 125.212 74.5244 117.724 69.5803C109.638 64.2279 123.971 53.0285 125.704 49.7182C130.196 41.0983 124.848 36.2188 134.518 36.2188C144.187 36.2188 154.349 44.3872 152.038 53.8239Z" fill="white"/>
<path d="M122.944 71.4723C120.633 71.4723 118.708 71.0209 117.36 70.1181C115.756 69.0648 114.857 67.7106 114.643 66.0984C114.108 61.7562 118.836 56.5972 122.28 52.8354C123.607 51.3952 124.741 50.1269 125.126 49.4176C126.773 46.2792 127.051 43.6567 127.265 41.5501C127.693 37.6163 128.206 35.5742 134.517 35.5742C140.421 35.5742 146.54 38.4977 150.069 43.0333C152.658 46.3652 153.599 50.2559 152.679 53.9962C151.225 59.9291 142.646 65.7114 134.774 68.8283C130.303 70.591 126.217 71.4938 122.944 71.4938V71.4723ZM134.496 36.8855C129.062 36.8855 128.912 38.2827 128.548 41.679C128.335 43.7856 128.014 46.6446 126.259 50.0195C125.81 50.9008 124.655 52.1475 123.222 53.7167C120.141 57.0916 115.478 62.2076 115.927 65.9479C116.077 67.1732 116.782 68.1835 118.045 69.0433C120.954 70.9564 127.158 70.419 134.282 67.6031C143.202 64.0778 150.241 58.3598 151.374 53.6737C152.423 49.3746 150.668 45.9567 149 43.8286C145.705 39.6154 139.993 36.8855 134.474 36.8855H134.496Z" fill="black"/>
<path d="M127.17 69.0502C127.845 68.6584 127.866 67.424 127.216 66.2931C126.566 65.1621 125.492 64.5629 124.817 64.9547C124.141 65.3465 124.121 66.5809 124.77 67.7118C125.42 68.8428 126.494 69.442 127.17 69.0502Z" fill="#FF3333"/>
<path d="M133.439 66.6596C134.115 66.2678 134.135 65.0334 133.485 63.9025C132.836 62.7715 131.761 62.1723 131.086 62.5641C130.411 62.9558 130.39 64.1903 131.04 65.3212C131.69 66.4521 132.764 67.0514 133.439 66.6596Z" fill="#3351FF"/>
<path d="M139.353 63.894C140.029 63.5022 140.049 62.2678 139.399 61.1368C138.75 60.0059 137.675 59.4067 137 59.7985C136.325 60.1902 136.304 61.4246 136.954 62.5556C137.604 63.6865 138.678 64.2857 139.353 63.894Z" fill="#33FF3D"/>
<path d="M144.564 60.8901C145.24 60.4983 145.26 59.2639 144.61 58.1329C143.961 57.002 142.886 56.4028 142.211 56.7945C141.536 57.1863 141.515 58.4207 142.165 59.5517C142.815 60.6826 143.889 61.2818 144.564 60.8901Z" fill="#FFF033"/>
<path d="M149.948 49.3698C150.548 48.8694 150.361 47.6491 149.531 46.6442C148.701 45.6393 147.542 45.2303 146.942 45.7307C146.342 46.2311 146.528 47.4514 147.358 48.4563C148.188 49.4612 149.348 49.8701 149.948 49.3698Z" fill="#020202"/>
<path d="M149.436 56.0455C150.036 55.5451 149.85 54.3249 149.02 53.32C148.19 52.315 147.03 51.9061 146.43 52.4064C145.83 52.9068 146.017 54.1271 146.847 55.132C147.677 56.137 148.836 56.5459 149.436 56.0455Z" fill="#C33ED6"/>
<path d="M6.39592 37.2969H6.37453C5.55931 37.2969 4.89844 37.9609 4.89844 38.7801V57.8684C4.89844 58.6876 5.55931 59.3517 6.37453 59.3517H6.39592C7.21114 59.3517 7.87201 58.6876 7.87201 57.8684V38.7801C7.87201 37.9609 7.21114 37.2969 6.39592 37.2969Z" fill="#8E5F13"/>
<path d="M4.04357 36.8653C3.89383 37.2737 3.82965 37.7036 3.76547 38.1335C3.65851 39.0579 3.44458 39.8317 5.34852 39.8747C7.97982 39.9392 8.98527 39.9392 9.04945 38.3915C9.11363 36.8438 8.3007 36.4999 8.64299 35.3606C8.85691 34.6512 7.97982 33.9848 8.23653 33.5764C8.36488 33.383 8.23653 33.1465 8.00121 33.125C7.33804 33.125 6.39676 33.6409 5.66941 34.6727C4.85649 35.8335 4.32168 35.984 4.02218 36.8008L4.04357 36.8653Z" fill="white"/>
<path d="M6.50468 40.2173C6.1624 40.2173 5.77733 40.2173 5.37087 40.2173C4.51517 40.2173 3.95896 40.0239 3.65946 39.6799C3.31718 39.2715 3.38136 38.7771 3.44553 38.2612V38.0892C3.53111 37.5948 3.61668 37.1434 3.74503 36.7565C3.91617 36.2191 4.21567 35.9397 4.53656 35.5957C4.79327 35.3378 5.07137 35.0368 5.41366 34.5424C6.141 33.4891 7.16785 32.8228 8.02355 32.8443C8.25887 32.8443 8.45141 32.9732 8.55837 33.1882C8.66533 33.3817 8.64394 33.6181 8.51559 33.8116C8.51559 33.8761 8.62255 34.091 8.68673 34.1985C8.85787 34.5424 9.11458 34.9938 8.94344 35.4882C8.79369 35.9612 8.90065 36.2621 9.0504 36.692C9.20015 37.1004 9.39268 37.6163 9.3499 38.4117C9.28572 39.9809 8.28027 40.2173 6.46189 40.2173H6.50468ZM7.93798 33.4891C7.42456 33.5106 6.61164 33.962 5.94847 34.9079C5.5848 35.4453 5.26391 35.7677 5.0072 36.0471C4.7077 36.3696 4.49377 36.5845 4.36542 36.9715C4.23706 37.3369 4.15149 37.7238 4.10871 38.1752V38.3472C4.04453 38.7341 4.00174 39.0781 4.15149 39.25C4.25845 39.379 4.55795 39.5295 5.37087 39.551C8.1733 39.6155 8.68673 39.551 8.72951 38.3902C8.7509 37.7238 8.60116 37.3154 8.45141 36.907C8.28027 36.4556 8.10913 35.9612 8.32305 35.2733C8.38723 35.0368 8.25887 34.7574 8.10913 34.4779C7.93798 34.1555 7.76684 33.8116 7.93798 33.4676V33.4891Z" fill="black"/>
<path d="M5.45355 34.5883C5.3252 34.7817 5.23963 34.9967 5.15406 35.2117C5.00431 35.6631 4.79038 36.05 5.96698 36.3079C7.61421 36.6519 8.23459 36.7809 8.42713 36.007C8.61966 35.2332 8.14902 34.9322 8.46991 34.4163C8.68384 34.0939 8.19181 33.6425 8.40573 33.449C8.5127 33.363 8.44852 33.234 8.29877 33.191C7.89231 33.1051 7.22914 33.2555 6.69432 33.7069C6.07394 34.2014 5.71026 34.2014 5.45355 34.6098V34.5883Z" fill="black"/>
</g>
<defs>
<clipPath id="clip0_971_1995">
<rect width="153" height="146" fill="white"/>
</clipPath>
</defs>
</svg>
