<svg width="126" height="150" viewBox="0 0 126 150" fill="none" xmlns="http://www.w3.org/2000/svg">
<g clip-path="url(#clip0_998_2087)">
<path d="M115.641 61.0701C116.573 57.4913 117.081 53.7643 117.081 49.9102C117.081 22.9531 92.7707 1.07812 62.743 1.07812C32.7152 1.07812 8.40506 22.9531 8.40506 49.9314C8.40506 53.7643 8.91329 57.4913 9.84504 61.0912C4.2969 69.604 1.07812 79.5356 1.07812 90.1872C1.07812 121.443 28.6918 146.791 62.743 146.791C96.7942 146.791 124.408 121.443 124.408 90.1872C124.408 79.5568 121.21 69.5829 115.641 61.0912V61.0701Z" fill="#075AA3"/>
<path d="M62.7468 146.792C87.0261 146.792 106.708 124.797 106.708 97.6637C106.708 70.5308 87.0261 48.5352 62.7468 48.5352C38.4674 48.5352 18.7852 70.5308 18.7852 97.6637C18.7852 124.797 38.4674 146.792 62.7468 146.792Z" fill="white"/>
<path d="M62.7448 147.873C28.1431 147.873 0 121.996 0 90.1891C0 79.8763 3.00701 69.7541 8.68221 60.9025C7.79281 57.2814 7.32694 53.5968 7.32694 49.9545C7.32694 22.4043 32.1877 0 62.7448 0C93.302 0 118.163 22.4043 118.163 49.9333C118.163 53.5968 117.697 57.2814 116.807 60.8813C122.483 69.7329 125.49 79.8551 125.49 90.1679C125.49 121.974 97.3466 147.873 62.7448 147.873ZM62.7448 2.18114C33.3947 2.18114 9.50808 23.5902 9.50808 49.9333C9.50808 53.5756 9.97395 57.2179 10.9057 60.8178C10.9904 61.1143 10.9269 61.4319 10.7575 61.686C5.1458 70.2835 2.18114 80.1304 2.18114 90.1891C2.18114 120.81 29.3501 145.713 62.7448 145.713C96.1396 145.713 123.309 120.81 123.309 90.1891C123.309 80.1304 120.344 70.2835 114.732 61.686C114.563 61.4319 114.52 61.1143 114.584 60.8178C115.516 57.239 115.982 53.5756 115.982 49.9333C115.982 23.5902 92.0949 2.18114 62.7237 2.18114H62.7448Z" fill="black"/>
<path d="M60.4742 46.7509C64.537 34.6925 58.9268 21.9173 47.9435 18.2168C36.9601 14.5162 24.7629 21.2915 20.7001 33.3499C16.6373 45.4083 22.2475 58.1835 33.2308 61.8841C44.2142 65.5846 56.4115 58.8093 60.4742 46.7509Z" fill="white"/>
<path d="M106.533 55.054C110.596 42.9956 105.246 30.3083 94.5842 26.716C83.9222 23.1237 71.9855 29.9869 67.9227 42.0453C63.8599 54.1036 69.2096 66.791 79.8715 70.3833C90.5335 73.9756 102.47 67.1124 106.533 55.054Z" fill="white"/>
<path d="M36.6149 119.706C35.6831 118.838 34.3067 118.774 33.2267 119.452C32.9091 119.643 32.5702 119.749 32.2314 119.749C31.1726 119.749 30.2197 118.774 29.6056 117.271C29.2032 116.276 28.2503 115.619 27.1915 115.535C26.8315 115.513 26.4715 115.492 26.1327 115.492H26.1115C24.9892 115.492 23.9727 116.212 23.528 117.25C22.8928 118.774 21.961 119.727 20.9022 119.727C20.4787 119.727 20.0552 119.558 19.674 119.283C18.5517 118.436 17.0058 118.457 15.947 119.367C12.4953 122.417 10.293 126.97 10.293 132.073C10.293 141.242 17.387 148.654 26.1115 148.654C34.8361 148.654 41.9301 141.221 41.9301 132.073C41.9301 127.139 39.876 122.713 36.6149 119.685V119.706Z" fill="#FDF353"/>
<path d="M26.1111 149.778C16.7936 149.778 9.19141 141.858 9.19141 132.096C9.19141 126.866 11.3937 121.953 15.2054 118.586C16.6242 117.336 18.7842 117.273 20.3089 118.438C20.4995 118.586 20.69 118.67 20.8594 118.67C21.3889 118.67 22.0241 117.95 22.49 116.849C23.1041 115.367 24.5229 114.414 26.0688 114.414C26.4711 114.414 26.8523 114.414 27.2335 114.456C28.7158 114.562 30.0287 115.515 30.5793 116.849C31.024 117.95 31.6593 118.649 32.2098 118.649C32.3581 118.649 32.4851 118.607 32.6334 118.522C34.1792 117.569 36.0639 117.718 37.3345 118.903C40.9344 122.249 42.9885 127.077 42.9885 132.096C42.9885 141.837 35.4074 149.778 26.0688 149.778H26.1111ZM17.8313 119.793C17.4077 119.793 16.9842 119.941 16.6454 120.237C13.2996 123.181 11.3725 127.522 11.3725 132.117C11.3725 140.672 17.9795 147.618 26.1111 147.618C34.2428 147.618 40.8497 140.672 40.8497 132.117C40.8497 127.691 39.0497 123.456 35.8733 120.513C35.3227 120.005 34.4969 119.962 33.7981 120.386C33.2898 120.703 32.7604 120.852 32.231 120.852C30.7487 120.852 29.4146 119.708 28.5887 117.696C28.3558 117.103 27.7629 116.68 27.1064 116.638C26.7888 116.638 26.4499 116.595 26.1111 116.595C25.4123 116.595 24.777 117.04 24.5017 117.696C23.6759 119.708 22.3418 120.852 20.8594 120.852C20.203 120.852 19.5465 120.619 18.9748 120.174C18.636 119.92 18.2336 119.772 17.8313 119.772V119.793Z" fill="black"/>
<path d="M108.338 119.706C107.406 118.838 106.029 118.774 104.949 119.452C104.632 119.643 104.293 119.749 103.954 119.749C102.895 119.749 101.942 118.774 101.328 117.271C100.926 116.276 99.973 115.619 98.9142 115.535C98.5542 115.513 98.1942 115.492 97.8554 115.492H97.8342C96.7119 115.492 95.6954 116.212 95.2507 117.25C94.6154 118.774 93.6837 119.727 92.6249 119.727C92.2013 119.727 91.7778 119.558 91.3966 119.283C90.2743 118.436 88.7285 118.457 87.6697 119.367C84.2179 122.417 82.0156 126.97 82.0156 132.073C82.0156 141.242 89.1096 148.654 97.8342 148.654C106.559 148.654 113.653 141.221 113.653 132.073C113.653 127.139 111.599 122.713 108.338 119.685V119.706Z" fill="#FDF353"/>
<path d="M97.8142 149.778C88.4968 149.778 80.8945 141.858 80.8945 132.096C80.8945 126.866 83.0968 121.953 86.9085 118.586C88.3273 117.336 90.4873 117.273 92.012 118.438C92.2026 118.586 92.3932 118.67 92.5626 118.67C93.092 118.67 93.7273 117.95 94.1931 116.849C94.8072 115.367 96.226 114.414 97.7719 114.414C98.1742 114.414 98.5554 114.414 98.9366 114.456C100.419 114.562 101.732 115.515 102.282 116.849C102.727 117.95 103.384 118.649 103.913 118.649C104.061 118.649 104.188 118.607 104.336 118.522C105.882 117.569 107.767 117.718 109.038 118.903C112.638 122.249 114.692 127.077 114.692 132.096C114.692 141.837 107.111 149.778 97.7719 149.778H97.8142ZM89.5344 119.772C89.1109 119.772 88.6873 119.92 88.3485 120.216C85.0027 123.16 83.0757 127.501 83.0757 132.096C83.0757 140.651 89.6826 147.597 97.8142 147.597C105.946 147.597 112.553 140.651 112.553 132.096C112.553 127.67 110.753 123.435 107.576 120.492C107.026 119.983 106.2 119.941 105.501 120.365C104.993 120.682 104.464 120.83 103.934 120.83C102.452 120.83 101.118 119.687 100.292 117.675C100.059 117.082 99.466 116.659 98.8095 116.616C98.4919 116.616 98.1531 116.574 97.8142 116.574C97.1154 116.574 96.4802 117.019 96.2049 117.675C95.379 119.687 94.0449 120.83 92.5626 120.83C91.9061 120.83 91.2497 120.597 90.6779 120.153C90.3391 119.878 89.9156 119.75 89.5132 119.75L89.5344 119.772Z" fill="black"/>
<path d="M103.362 76.0039C96.797 78.3545 72.6774 95.5918 80.1102 99.9753C82.9055 101.627 87.3524 101.966 91.8206 101.754C99.2111 101.415 106.729 99.5518 114.013 96.4812L118.248 94.7024" fill="#075AA3"/>
<path d="M89.5766 102.897C85.172 102.897 81.805 102.219 79.5603 100.906C78.1627 100.08 77.4851 98.8096 77.6333 97.2213C78.3109 90.0638 97.433 76.977 102.981 74.9864C103.553 74.7747 104.167 75.0711 104.379 75.6429C104.591 76.2146 104.294 76.8287 103.722 77.0405C98.1741 79.0311 80.3439 91.7155 79.7933 97.4331C79.7297 98.1531 79.9839 98.6401 80.6615 99.0425C82.885 100.355 86.7179 100.906 91.779 100.673C98.873 100.355 106.221 98.5978 113.612 95.4849L117.847 93.7061C118.397 93.4732 119.033 93.7273 119.266 94.2779C119.498 94.8284 119.244 95.4637 118.694 95.6967L114.459 97.4755C106.835 100.694 99.2329 102.494 91.8848 102.833C91.0801 102.875 90.3178 102.897 89.5766 102.897Z" fill="black"/>
<path d="M30.6641 50.5272C35.3305 50.5272 39.1134 48.7827 39.1134 46.6308C39.1134 44.4789 35.3305 42.7344 30.6641 42.7344C25.9977 42.7344 22.2148 44.4789 22.2148 46.6308C22.2148 48.7827 25.9977 50.5272 30.6641 50.5272Z" fill="#FFDEFF"/>
<path d="M91.3946 59.6952C96.061 59.6952 99.8439 57.9507 99.8439 55.7987C99.8439 53.6468 96.061 51.9023 91.3946 51.9023C86.7282 51.9023 82.9453 53.6468 82.9453 55.7987C82.9453 57.9507 86.7282 59.6952 91.3946 59.6952Z" fill="#FFDEFF"/>
<path d="M82.9462 48.5134C85.2852 48.5134 87.1814 46.6172 87.1814 44.2782C87.1814 41.9391 85.2852 40.043 82.9462 40.043C80.6071 40.043 78.7109 41.9391 78.7109 44.2782C78.7109 46.6172 80.6071 48.5134 82.9462 48.5134Z" fill="black"/>
<path d="M44.786 41.654C47.1251 41.654 49.0212 39.7579 49.0212 37.4188C49.0212 35.0798 47.1251 33.1836 44.786 33.1836C42.447 33.1836 40.5508 35.0798 40.5508 37.4188C40.5508 39.7579 42.447 41.654 44.786 41.654Z" fill="black"/>
<path d="M63.8907 46.6289L56.2461 49.2547L62.366 54.5276L70.0106 51.9018L63.8907 46.6289Z" fill="#FDF353"/>
<path d="M62.3653 55.0788C62.2383 55.0788 62.1112 55.0364 62.0053 54.9517L55.8854 49.6789C55.7372 49.5518 55.6737 49.3612 55.716 49.1706C55.7584 48.9801 55.8854 48.8318 56.076 48.7683L63.7206 46.1425C63.9112 46.0789 64.1017 46.1213 64.25 46.2483L70.3911 51.5212C70.5393 51.6483 70.6028 51.8388 70.5816 52.0294C70.5393 52.22 70.4122 52.3682 70.2216 52.4318L62.5771 55.0576C62.5771 55.0576 62.45 55.0788 62.4077 55.0788H62.3653ZM57.3254 49.4671L62.4924 53.9141L68.9511 51.6906L63.7841 47.2436L57.3466 49.4671H57.3254Z" fill="black"/>
<path d="M70.0092 52.4547C70.0092 52.4547 69.9457 52.4547 69.9033 52.4547L56.1389 49.8288C55.8424 49.7653 55.6518 49.49 55.7153 49.1936C55.7789 48.8971 56.0542 48.7065 56.3506 48.77L70.1151 51.3959C70.4116 51.4594 70.6022 51.7347 70.5386 52.0312C70.4963 52.2853 70.2633 52.4759 70.0092 52.4759V52.4547Z" fill="black"/>
<path d="M49.5679 21.6668L40.8602 19.3921C33.8785 17.5683 26.7415 21.745 24.9191 28.7211C23.0968 35.6971 27.2793 42.8308 34.261 44.6546L42.9687 46.9292C49.9503 48.753 57.0874 44.5763 58.9097 37.6003C60.732 30.6243 56.5495 23.4906 49.5679 21.6668Z" fill="#F9F9F9"/>
<path d="M46.2896 48.4492C45.1037 48.4492 43.8967 48.301 42.7108 47.9833L33.9862 45.6963C30.3439 44.7434 27.2734 42.414 25.3676 39.1529C23.4617 35.8918 22.9111 32.0801 23.8641 28.4378C24.817 24.7955 27.1464 21.7249 30.4075 19.8191C33.6686 17.9132 37.4803 17.3838 41.1226 18.3156L49.8472 20.6026C57.3858 22.572 61.9387 30.3225 59.9693 37.8611C59.0164 41.5034 56.687 44.574 53.4259 46.4798C51.2236 47.7716 48.7672 48.428 46.2896 48.428V48.4492ZM37.565 20.052C35.4686 20.052 33.3933 20.6026 31.5086 21.7038C28.7346 23.3343 26.7652 25.9178 25.9605 28.9884C25.1558 32.0589 25.6005 35.2988 27.2311 38.0517C28.8616 40.8258 31.4451 42.7952 34.5156 43.5999L43.2402 45.8869C46.3107 46.6916 49.5507 46.2469 52.3036 44.6163C55.0777 42.9858 57.047 40.4023 57.8517 37.3317C58.6564 34.2612 58.2117 31.0213 56.5812 28.2684C54.9506 25.4943 52.3671 23.5249 49.2966 22.7202L40.572 20.4332C39.5767 20.1791 38.5603 20.052 37.5438 20.052H37.565Z" fill="black"/>
<path d="M97.4091 32.346L88.5861 30.5702C81.512 29.1464 74.624 33.7222 73.2014 40.7906C71.7787 47.859 76.3601 54.7432 83.4342 56.1671L92.2571 57.9429C99.3312 59.3667 106.219 54.7909 107.642 47.7225C109.065 40.6541 104.483 33.7699 97.4091 32.346Z" fill="#F9F9F9"/>
<path d="M94.8239 59.3146C93.8921 59.3146 92.9604 59.2299 92.0286 59.0394L83.177 57.2606C75.5324 55.7147 70.556 48.2395 72.1019 40.595C73.6477 32.9504 81.1229 27.974 88.7675 29.5198L97.6191 31.2986C105.264 32.8445 110.24 40.3197 108.694 47.9642C107.339 54.6771 101.431 59.3146 94.8239 59.3146ZM85.9722 31.4045C80.3817 31.4045 75.3842 35.3433 74.2407 41.0185C72.9278 47.4984 77.1418 53.8089 83.6217 55.1218L92.4733 56.9006C98.932 58.2135 105.264 53.9994 106.577 47.5196C107.89 41.0397 103.675 34.7292 97.1956 33.4163L88.344 31.6375C87.5604 31.4681 86.7558 31.4045 85.9722 31.4045Z" fill="black"/>
<path d="M18.7577 21.0942L17.3945 22.7969L24.9658 28.8582L26.3289 27.1555L18.7577 21.0942Z" fill="black"/>
<path d="M115.972 41.7843L107.105 46.7969L108.179 48.6956L117.046 43.683L115.972 41.7843Z" fill="black"/>
<path d="M59.1839 36.5552L58.707 38.6836L72.965 41.8785L73.4419 39.7501L59.1839 36.5552Z" fill="black"/>
<path d="M18.8044 67.7852C25.4748 70.3475 50.8438 87.9236 43.9828 91.7777C41.4205 93.2177 37.0793 93.3447 32.6535 92.9424C25.369 92.2647 17.8091 90.1471 10.3551 86.8648L6.03516 84.959" fill="#075AA3"/>
<path d="M5.05983 85.4475C4.9116 85.1722 4.89042 84.8122 5.03865 84.5157C5.27159 83.9652 5.92805 83.7111 6.47863 83.9652L10.8197 85.871C18.3796 89.1957 25.7701 91.2074 32.7794 91.8639C37.7557 92.3297 41.4616 91.9697 43.4733 90.8474C44.0239 90.5509 44.1086 90.2121 44.0874 89.8098C43.7062 84.5793 24.3301 71.0901 18.4431 68.8242C17.8714 68.6125 17.5961 67.9772 17.8078 67.4266C18.0196 66.876 18.6549 66.5796 19.2055 66.7913C22.4242 68.0195 29.0735 72.1912 34.664 76.49C39.7887 80.4287 45.9509 85.8922 46.2262 89.6404C46.3109 90.9745 45.718 92.0544 44.5109 92.7321C42.0757 94.0873 38.0734 94.532 32.5676 94.0238C25.3254 93.3462 17.702 91.2709 9.93033 87.8616L5.58923 85.9557C5.35629 85.8498 5.16571 85.6804 5.05983 85.4687V85.4475Z" fill="black"/>
<path d="M74.5622 60.1406H42.798C34.9856 60.1406 28.6523 66.4739 28.6523 74.2863V86.6319C28.6523 94.4444 34.9856 100.778 42.798 100.778H74.5622C82.3746 100.778 88.7078 94.4444 88.7078 86.6319V74.2863C88.7078 66.4739 82.3746 60.1406 74.5622 60.1406Z" fill="#B7B7B7"/>
<path d="M74.5836 101.837H42.7982C34.4125 101.837 27.5938 95.0179 27.5938 86.6322V74.2865C27.5938 65.9007 34.4125 59.082 42.7982 59.082H74.5836C82.9693 59.082 89.788 65.9007 89.788 74.2865V86.6322C89.788 95.0179 82.9693 101.837 74.5836 101.837ZM42.7982 61.1996C35.5771 61.1996 29.7114 67.0654 29.7114 74.2865V86.6322C29.7114 93.8532 35.5771 99.719 42.7982 99.719H74.5836C81.8046 99.719 87.6704 93.8532 87.6704 86.6322V74.2865C87.6704 67.0654 81.8046 61.1996 74.5836 61.1996H42.7982Z" fill="#131416"/>
<path d="M47.9205 84V77.4545H48.892V78.4773H48.9773C49.1136 78.1278 49.3338 77.8565 49.6378 77.6634C49.9418 77.4673 50.3068 77.3693 50.733 77.3693C51.1648 77.3693 51.5241 77.4673 51.8111 77.6634C52.1009 77.8565 52.3267 78.1278 52.4886 78.4773H52.5568C52.7244 78.1392 52.9759 77.8707 53.3111 77.6719C53.6463 77.4702 54.0483 77.3693 54.517 77.3693C55.1023 77.3693 55.581 77.5526 55.9531 77.919C56.3253 78.2827 56.5114 78.8494 56.5114 79.6193V84H55.5057V79.6193C55.5057 79.1364 55.3736 78.7912 55.1094 78.5838C54.8452 78.3764 54.5341 78.2727 54.1761 78.2727C53.7159 78.2727 53.3594 78.4119 53.1065 78.6903C52.8537 78.9659 52.7273 79.3153 52.7273 79.7386V84H51.7045V79.517C51.7045 79.1449 51.5838 78.8452 51.3423 78.6179C51.1009 78.3878 50.7898 78.2727 50.4091 78.2727C50.1477 78.2727 49.9034 78.3423 49.6761 78.4815C49.4517 78.6207 49.2699 78.8139 49.1307 79.0611C48.9943 79.3054 48.9261 79.5881 48.9261 79.9091V84H47.9205ZM58.3501 84V77.4545H59.3558V84H58.3501ZM58.8615 76.3636C58.6655 76.3636 58.4964 76.2969 58.3544 76.1634C58.2152 76.0298 58.1456 75.8693 58.1456 75.6818C58.1456 75.4943 58.2152 75.3338 58.3544 75.2003C58.4964 75.0668 58.6655 75 58.8615 75C59.0575 75 59.2251 75.0668 59.3643 75.2003C59.5064 75.3338 59.5774 75.4943 59.5774 75.6818C59.5774 75.8693 59.5064 76.0298 59.3643 76.1634C59.2251 76.2969 59.0575 76.3636 58.8615 76.3636ZM61.1978 86.4545V77.4545H62.1694V78.4943H62.2887C62.3626 78.3807 62.4648 78.2358 62.5955 78.0597C62.729 77.8807 62.9194 77.7216 63.1665 77.5824C63.4165 77.4403 63.7546 77.3693 64.1808 77.3693C64.7319 77.3693 65.2177 77.5071 65.6381 77.7827C66.0586 78.0582 66.3867 78.4489 66.6225 78.9545C66.8583 79.4602 66.9762 80.0568 66.9762 80.7443C66.9762 81.4375 66.8583 82.0384 66.6225 82.5469C66.3867 83.0526 66.06 83.4446 65.6424 83.723C65.2248 83.9986 64.7433 84.1364 64.1978 84.1364C63.7773 84.1364 63.4407 84.0668 63.1879 83.9276C62.935 83.7855 62.7404 83.625 62.604 83.446C62.4677 83.2642 62.3626 83.1136 62.2887 82.9943H62.2035V86.4545H61.1978ZM62.1864 80.7273C62.1864 81.2216 62.2589 81.6577 62.4038 82.0355C62.5487 82.4105 62.7603 82.7045 63.0387 82.9176C63.3171 83.1278 63.658 83.233 64.0614 83.233C64.4819 83.233 64.8327 83.1222 65.114 82.9006C65.3981 82.6761 65.6112 82.375 65.7532 81.9972C65.8981 81.6165 65.9705 81.1932 65.9705 80.7273C65.9705 80.267 65.8995 79.8523 65.7575 79.483C65.6183 79.1108 65.4066 78.8168 65.1225 78.6009C64.8413 78.3821 64.4876 78.2727 64.0614 78.2727C63.6523 78.2727 63.3086 78.3764 63.0302 78.5838C62.7518 78.7884 62.5415 79.0753 62.3995 79.4446C62.2575 79.8111 62.1864 80.2386 62.1864 80.7273Z" fill="#646464"/>
</g>
<defs>
<clipPath id="clip0_998_2087">
<rect width="125.49" height="149.779" fill="white"/>
</clipPath>
</defs>
</svg>
