<svg width="221" height="258" viewBox="0 0 221 258" fill="none" xmlns="http://www.w3.org/2000/svg">
<g clip-path="url(#clip0_912_2266)">
<path d="M158.37 136.18C159.65 131.24 160.35 126.1 160.35 120.81C160.35 83.64 126.83 53.5 85.47 53.5C44.11 53.5 10.59 83.64 10.59 120.81C10.59 126.1 11.29 131.24 12.57 136.18C4.91 147.9 0.5 161.61 0.5 176.27C0.5 219.35 38.54 254.28 85.47 254.28C132.4 254.28 170.44 219.35 170.44 176.27C170.44 161.61 166.03 147.89 158.36 136.18H158.37Z" fill="#075AA3" stroke="#555555" stroke-miterlimit="10"/>
<path d="M82.2708 116.397C87.8696 99.7795 80.1423 82.1759 65.0115 77.0779C49.8807 71.9799 33.0761 81.3181 27.4773 97.9353C21.8785 114.553 29.6058 132.156 44.7366 137.254C59.8674 142.352 76.6721 133.014 82.2708 116.397Z" fill="white"/>
<path d="M85.4689 254.279C118.932 254.279 146.059 223.965 146.059 186.569C146.059 149.174 118.932 118.859 85.4689 118.859C52.006 118.859 24.8789 149.174 24.8789 186.569C24.8789 223.965 52.006 254.279 85.4689 254.279Z" fill="white"/>
<path d="M145.776 127.843C151.375 111.226 144 93.7411 129.303 88.7895C114.607 83.8379 98.1542 93.2947 92.5554 109.912C86.9567 126.529 94.3318 144.014 109.028 148.966C123.725 153.917 140.177 144.46 145.776 127.843Z" fill="white"/>
<path d="M49.4484 216.971C48.1584 215.771 46.2684 215.701 44.7684 216.631C44.3284 216.901 43.8684 217.041 43.3884 217.041C41.9284 217.041 40.6184 215.711 39.7584 213.621C39.1984 212.261 37.8884 211.351 36.4284 211.241C35.9384 211.211 35.4484 211.191 34.9584 211.191C34.9584 211.191 34.9384 211.191 34.9284 211.191C33.3684 211.191 31.9684 212.181 31.3684 213.621C30.4984 215.711 29.1984 217.041 27.7384 217.041C27.1484 217.041 26.5784 216.821 26.0584 216.421C24.5184 215.241 22.3784 215.271 20.9284 216.551C16.1684 220.741 13.1484 227.021 13.1484 234.051C13.1484 246.681 22.9184 256.911 34.9584 256.911C46.9984 256.911 56.7684 246.671 56.7684 234.051C56.7684 227.261 53.9384 221.161 49.4484 216.971Z" fill="#FFB92C" stroke="#555555" stroke-miterlimit="10"/>
<path d="M148.28 216.971C146.99 215.771 145.1 215.701 143.6 216.631C143.16 216.901 142.7 217.041 142.22 217.041C140.76 217.041 139.45 215.711 138.59 213.621C138.03 212.261 136.72 211.351 135.26 211.241C134.77 211.211 134.28 211.191 133.79 211.191C133.79 211.191 133.77 211.191 133.76 211.191C132.2 211.191 130.8 212.181 130.2 213.621C129.33 215.711 128.03 217.041 126.57 217.041C125.98 217.041 125.41 216.821 124.89 216.421C123.35 215.241 121.21 215.271 119.76 216.551C115 220.741 111.98 227.021 111.98 234.051C111.98 246.681 121.75 256.911 133.79 256.911C145.83 256.911 155.6 246.671 155.6 234.051C155.6 227.261 152.77 221.161 148.28 216.971Z" fill="#FFB92C" stroke="#555555" stroke-miterlimit="10"/>
<path d="M12.7305 140.358C20.4505 133.968 60.1305 114.308 60.7105 124.658C60.9305 128.538 58.2605 133.728 54.8505 138.708C49.2105 146.918 41.4805 154.608 32.3205 161.488L26.9905 165.488" fill="#075AA3"/>
<path d="M12.7305 140.358C20.4505 133.968 60.1305 114.308 60.7105 124.658C60.9305 128.538 58.2605 133.728 54.8505 138.708C49.2105 146.918 41.4805 154.608 32.3205 161.488L26.9905 165.488" stroke="#555555" stroke-miterlimit="10"/>
<path d="M141.42 156.73C132.37 159.98 99.1398 183.71 109.38 189.75C113.22 192.02 119.36 192.5 125.53 192.21C135.71 191.74 146.08 189.18 156.12 184.95L161.95 182.49" fill="#075AA3"/>
<path d="M141.42 156.73C132.37 159.98 99.1398 183.71 109.38 189.75C113.22 192.02 119.36 192.5 125.53 192.21C135.71 191.74 146.08 189.18 156.12 184.95L161.95 182.49" stroke="#555555" stroke-miterlimit="10"/>
<path d="M52.8883 118.389C59.3224 118.389 64.5383 115.98 64.5383 113.009C64.5383 110.038 59.3224 107.629 52.8883 107.629C46.4542 107.629 41.2383 110.038 41.2383 113.009C41.2383 115.98 46.4542 118.389 52.8883 118.389Z" fill="#FFDEFF"/>
<path d="M120.021 126.28C126.455 126.28 131.671 123.871 131.671 120.9C131.671 117.928 126.455 115.52 120.021 115.52C113.587 115.52 108.371 117.928 108.371 120.9C108.371 123.871 113.587 126.28 120.021 126.28Z" fill="#FFDEFF"/>
<path d="M113.299 118.86C116.53 118.86 119.149 116.241 119.149 113.01C119.149 109.779 116.53 107.16 113.299 107.16C110.068 107.16 107.449 109.779 107.449 113.01C107.449 116.241 110.068 118.86 113.299 118.86Z" fill="#555555"/>
<path d="M60.7211 109.419C63.952 109.419 66.5711 106.8 66.5711 103.569C66.5711 100.338 63.952 97.7188 60.7211 97.7188C57.4902 97.7188 54.8711 100.338 54.8711 103.569C54.8711 106.8 57.4902 109.419 60.7211 109.419Z" fill="#555555"/>
<path d="M85.1805 124.432L76.7305 117.172L95.7005 120.802L85.1805 124.432Z" fill="#FFB92C" stroke="#555555" stroke-width="0.5" stroke-miterlimit="10"/>
<path d="M87.3112 113.301L95.7513 120.561L76.7812 116.931L87.3112 113.301Z" fill="#FFB92C" stroke="#555555" stroke-width="0.5" stroke-miterlimit="10"/>
</g>
<path d="M168.009 73.348C165.068 72.4304 164.767 70.5765 165.664 67.7032C167.624 61.4219 172.363 59.161 177.891 56.4864C182.253 54.2548 184.951 52.8967 186.16 49.021C187.912 43.408 182.833 40.6497 178.289 39.2316C174.079 37.9178 167.11 36.9892 165.399 42.4686C164.941 43.9387 165.1 45.3083 165.551 46.9158C165.836 47.8845 165.874 48.703 165.582 49.6385C164.977 51.5763 162.693 52.5501 160.822 51.9662C156.546 50.6315 156.764 43.5868 157.807 40.2457C160.998 30.022 172.101 29.4541 180.721 32.1443C189.942 35.0221 196.618 41.3586 193.427 51.5822C191.467 57.8635 187.304 60.1576 181.597 62.7028C179.488 63.5847 176.587 64.659 174.98 66.284C173.915 67.3451 173.256 68.7526 172.684 70.1141C171.453 72.8832 170.748 74.203 168.009 73.348ZM166.719 76.5389C169.66 77.4564 171.381 80.6336 170.464 83.5738C169.546 86.5139 166.323 88.1479 163.383 87.2303C160.443 86.3127 158.788 83.1564 159.705 80.2163C160.623 77.2761 163.779 75.6213 166.719 76.5389Z" fill="#075AA3"/>
<defs>
<clipPath id="clip0_912_2266">
<rect width="170.94" height="204.42" fill="white" transform="translate(0 53)"/>
</clipPath>
</defs>
</svg>
