<svg width="160" height="189" viewBox="0 0 160 189" fill="none" xmlns="http://www.w3.org/2000/svg">
<path d="M150.538 110.354C151.369 107.143 151.824 103.802 151.824 100.364C151.824 76.2062 130.039 56.6172 103.157 56.6172C76.276 56.6172 54.4901 76.2062 54.4901 100.364C54.4901 103.802 54.9451 107.143 55.777 110.354C50.7985 117.971 47.9258 126.882 47.9258 136.41C47.9258 164.409 72.6493 187.111 103.151 187.111C133.652 187.111 158.376 164.409 158.376 136.41C158.376 126.882 155.51 117.965 150.525 110.354H150.538Z" fill="#075AA3"/>
<path d="M103.151 188.744C71.8042 188.744 46.3008 165.268 46.3008 136.417C46.3008 127.149 48.972 118.057 54.0285 110.076C53.2551 106.871 52.8651 103.609 52.8651 100.372C52.8651 75.356 75.4244 55 103.157 55C130.89 55 153.449 75.356 153.449 100.372C153.449 103.615 153.059 106.878 152.279 110.089C157.329 118.05 160 127.136 160 136.417C160 165.268 134.497 188.744 103.151 188.744ZM103.157 58.2497C77.2182 58.2497 56.1148 77.1433 56.1148 100.372C56.1148 103.57 56.5308 106.793 57.3497 109.952C57.4667 110.394 57.3887 110.868 57.1352 111.252C52.1697 118.843 49.5505 127.546 49.5505 136.417C49.5505 163.481 73.5981 185.494 103.151 185.494C132.703 185.494 156.751 163.481 156.751 136.417C156.751 127.533 154.125 118.83 149.166 111.252C148.874 110.81 148.822 110.251 149.01 109.77C149.796 106.67 150.199 103.505 150.199 100.372C150.199 77.1433 129.096 58.2497 103.157 58.2497Z" fill="black"/>
<path d="M103.163 187.441C72.5318 187.441 47.6133 164.55 47.6133 136.414C47.6133 127.205 50.317 118.177 55.4385 110.3C54.6001 107.024 54.1711 103.684 54.1711 100.369C54.1711 76.0679 76.1454 56.2969 103.163 56.2969C130.181 56.2969 152.155 76.0679 152.155 100.369C152.155 103.684 151.733 107.024 150.888 110.3C156.009 118.177 158.713 127.205 158.713 136.414C158.713 164.55 133.795 187.441 103.163 187.441ZM103.163 56.9468C76.5094 56.9468 54.8211 76.4254 54.8211 100.369C54.8211 103.677 55.25 107.011 56.1014 110.274L56.1404 110.41L56.0624 110.527C50.9604 118.327 48.2632 127.276 48.2632 136.408C48.2632 164.186 72.8893 186.784 103.163 186.784C133.437 186.784 158.063 164.186 158.063 136.408C158.063 127.276 155.366 118.327 150.264 110.527L150.186 110.41L150.225 110.274C151.076 107.005 151.505 103.671 151.505 100.369C151.505 76.4254 129.817 56.9468 103.163 56.9468Z" fill="black"/>
<path d="M95.5719 180.444C119.133 180.444 138.234 162.278 138.234 139.868C138.234 117.459 119.133 99.293 95.5719 99.293C72.0105 99.293 52.9102 117.459 52.9102 139.868C52.9102 162.278 72.0105 180.444 95.5719 180.444Z" fill="white"/>
<path d="M90.21 94.9012C92.7549 84.1019 87.6098 73.6487 78.7181 71.5534C69.8264 69.458 60.5552 76.514 58.0103 87.3133C55.4654 98.1126 60.6105 108.566 69.5022 110.661C78.3939 112.757 87.6651 105.701 90.21 94.9012Z" fill="white"/>
<path d="M131.243 96.6093C133.888 85.3872 128.192 74.4425 118.521 72.1635C108.85 69.8845 98.8664 77.1344 96.2219 88.3564C93.5774 99.5785 99.2733 110.523 108.944 112.802C118.615 115.081 128.599 107.831 131.243 96.6093Z" fill="white"/>
<path d="M91.767 102.473L84.1367 97.8125L99.6442 98.235L91.767 102.473Z" fill="#FDF353"/>
<path d="M91.7652 102.633C91.7652 102.633 91.7067 102.627 91.6807 102.607L84.0505 97.9474C83.9855 97.9084 83.9595 97.8369 83.979 97.7654C83.9985 97.6939 84.0635 97.6484 84.135 97.6484L99.6424 98.0709C99.7139 98.0709 99.7789 98.1229 99.7984 98.1944C99.8179 98.2659 99.7789 98.3374 99.7204 98.3764L91.8432 102.614C91.8432 102.614 91.7912 102.633 91.7652 102.633ZM84.7394 97.9929L91.7717 102.289L99.0315 98.3829L84.7459 97.9929H84.7394Z" fill="black"/>
<path d="M91.762 102.663L91.684 102.611L83.5273 97.6328L100.257 98.0878L91.762 102.657V102.663ZM84.7427 97.9903L91.775 102.286L99.0348 98.3802L84.7427 97.9903Z" fill="black"/>
<path d="M91.7577 102.824C91.7577 102.824 91.6992 102.818 91.6732 102.798L91.5952 102.746L83.445 97.7742C83.38 97.7352 83.354 97.6572 83.3735 97.5857C83.393 97.5142 83.471 97.4752 83.536 97.4688L100.265 97.9237C100.337 97.9237 100.402 97.9757 100.421 98.0472C100.441 98.1187 100.402 98.1902 100.343 98.2292L91.8747 102.785C91.8747 102.785 91.8552 102.798 91.8487 102.805C91.8227 102.818 91.7967 102.824 91.7642 102.824H91.7577ZM84.1339 97.8132L91.7642 102.473L91.8097 102.447C91.7707 102.46 91.7252 102.447 91.6862 102.428L84.6539 98.1317C84.5889 98.0927 84.5629 98.0212 84.5824 97.9497C84.6019 97.8847 84.6604 97.8392 84.7254 97.8327L84.1274 97.8132H84.1339ZM85.3493 98.1707L91.7837 102.103L98.426 98.5281L85.3493 98.1707ZM97.3601 98.1707L99.0435 98.2162C99.1149 98.2162 99.1799 98.2682 99.1994 98.3397C99.2124 98.3982 99.1929 98.4631 99.1474 98.5021L99.6479 98.2292L97.3601 98.1642V98.1707Z" fill="black"/>
<path d="M92.0217 93.375L99.6585 98.0415L84.1445 97.6126L92.0217 93.375Z" fill="#FDF353"/>
<path d="M99.6555 98.2024L84.1415 97.7735C84.07 97.7735 84.005 97.7215 83.9855 97.65C83.966 97.5785 84.005 97.507 84.0635 97.468L91.9408 93.2304C91.9927 93.2044 92.0512 93.2044 92.1032 93.2304L99.74 97.897C99.805 97.936 99.831 98.014 99.8115 98.079C99.792 98.1504 99.727 98.1959 99.6555 98.1959V98.2024ZM84.7525 97.468L99.051 97.8645L92.0122 93.5619L84.7525 97.468Z" fill="black"/>
<path d="M100.257 98.2141L83.5273 97.7591L92.022 93.1836L92.1 93.2356L100.257 98.2141ZM84.7557 97.4667L99.0478 97.8566L92.0155 93.5606L84.7557 97.4667Z" fill="black"/>
<path d="M100.258 98.3821L83.5288 97.9271C83.4573 97.9271 83.3923 97.8751 83.3728 97.8036C83.3533 97.7321 83.3858 97.6606 83.4508 97.6216L91.9454 93.0461C91.9974 93.0201 92.0624 93.0201 92.1144 93.0526L92.1924 93.1046L100.343 98.0766C100.408 98.1156 100.434 98.1936 100.414 98.2651C100.395 98.3366 100.33 98.3821 100.258 98.3821ZM99.0557 98.0246L99.6537 98.0376L99.1402 97.7256C99.1987 97.7646 99.2247 97.8361 99.2052 97.9076C99.1857 97.9726 99.1272 98.0181 99.0622 98.0246H99.0557ZM84.1397 97.6216L93.2453 97.8686L84.7507 97.6346C84.6792 97.6346 84.6142 97.5826 84.5947 97.5112C84.5752 97.4397 84.6077 97.3682 84.6662 97.3357L84.1332 97.6216H84.1397ZM85.3681 97.3292L98.4448 97.6866L92.0104 93.7545L85.3681 97.3292ZM92.0169 93.3776L84.9846 97.1667L91.9454 93.4231C91.9844 93.4036 92.0299 93.3971 92.0754 93.4101L92.0169 93.3776Z" fill="black"/>
<path d="M74.775 154.269C74.0146 153.516 72.9422 153.516 72.1167 154.14C71.8763 154.321 71.6163 154.425 71.3433 154.438C70.5179 154.471 69.7445 153.633 69.205 152.294C68.8541 151.423 68.0936 150.857 67.2617 150.818C66.9888 150.805 66.7093 150.805 66.4298 150.818H66.4103C65.5264 150.851 64.7595 151.52 64.454 152.476C64.0121 153.847 63.3036 154.737 62.4782 154.77C62.1402 154.783 61.8153 154.653 61.5098 154.406C60.6064 153.672 59.3975 153.737 58.6046 154.594C56.0113 157.415 54.445 161.562 54.614 166.124C54.913 174.327 60.6844 180.774 67.5087 180.527C74.333 180.28 79.617 173.43 79.318 165.227C79.1555 160.814 77.4072 156.915 74.7685 154.282V154.269H74.775Z" fill="#FDF353"/>
<path d="M67.1297 181.182C60.1364 181.182 54.2675 174.533 53.962 166.149C53.793 161.587 55.3074 157.219 58.1216 154.158C59.142 153.053 60.7343 152.949 61.9172 153.904C62.1057 154.06 62.2682 154.125 62.4501 154.125C62.9376 154.106 63.477 153.384 63.8345 152.28C64.231 151.045 65.2319 150.213 66.3888 150.174C66.7007 150.161 66.9997 150.161 67.2922 150.174C68.3776 150.226 69.3655 150.96 69.8074 152.052C70.2364 153.112 70.8148 153.787 71.2958 153.787H71.3153C71.4452 153.787 71.5817 153.722 71.7247 153.618C72.8361 152.78 74.2725 152.858 75.2344 153.807C75.2669 153.839 75.2994 153.878 75.3189 153.911C78.1136 156.751 79.8099 160.859 79.9659 165.2C80.1154 169.321 78.9195 173.247 76.5992 176.256C74.2465 179.304 71.0293 181.046 67.5326 181.176C67.3962 181.176 67.2662 181.182 67.1297 181.182ZM60.1364 154.548C59.7529 154.548 59.3824 154.71 59.0835 155.035C56.5032 157.843 55.1059 161.879 55.2619 166.097C55.5413 173.786 60.8318 179.882 67.1297 179.882C67.2467 179.882 67.3637 179.882 67.4806 179.882C70.5873 179.772 73.4535 178.199 75.5658 175.469C77.7041 172.701 78.8025 169.074 78.666 165.259C78.5165 161.197 76.9307 157.362 74.305 154.749C74.279 154.723 74.253 154.697 74.2335 154.665C73.7395 154.236 73.0701 154.236 72.5046 154.665C72.1537 154.931 71.7702 155.074 71.3673 155.094C70.2819 155.126 69.268 154.203 68.5985 152.546C68.3451 151.922 67.8121 151.506 67.2272 151.48C66.9737 151.467 66.7137 151.467 66.4602 151.48C65.8363 151.5 65.2969 151.974 65.0694 152.689C64.5104 154.418 63.6005 155.393 62.5021 155.432C62.0147 155.458 61.5402 155.282 61.0983 154.925C60.7993 154.678 60.4613 154.561 60.1364 154.561V154.548Z" fill="black"/>
<path d="M67.1282 180.84C60.3104 180.84 54.5909 174.334 54.2855 166.119C54.123 161.641 55.6113 157.358 58.3671 154.362C59.264 153.38 60.6743 153.289 61.7142 154.141C61.9612 154.342 62.2147 154.453 62.4617 154.433C63.1051 154.407 63.729 153.634 64.1385 152.366C64.4895 151.261 65.3734 150.527 66.3938 150.488C66.6992 150.475 66.9852 150.481 67.2712 150.488C68.2331 150.533 69.1105 151.19 69.5005 152.165C69.9944 153.387 70.6573 154.108 71.2943 154.108H71.3268C71.5218 154.102 71.7232 154.024 71.9117 153.881C72.9061 153.127 74.1475 153.185 74.9989 154.037C77.7936 156.818 79.4835 160.887 79.6459 165.196C79.7954 169.239 78.619 173.086 76.3443 176.037C74.05 179.007 70.9173 180.71 67.5247 180.833C67.3947 180.833 67.2647 180.84 67.1347 180.84H67.1282ZM60.1414 154.206C59.6734 154.206 59.2055 154.407 58.848 154.797C56.2093 157.67 54.7859 161.784 54.9419 166.093C55.2344 174.1 60.8888 180.411 67.4987 180.177C70.7028 180.06 73.66 178.448 75.8308 175.634C78.0146 172.807 79.139 169.102 78.996 165.209C78.8465 161.056 77.2217 157.15 74.544 154.485C73.933 153.874 73.0296 153.835 72.3082 154.388C72.0092 154.615 71.6842 154.739 71.3528 154.752C70.4104 154.765 69.52 153.926 68.9025 152.399C68.6035 151.658 67.9536 151.157 67.2452 151.125C66.9787 151.112 66.7057 151.112 66.4393 151.125C65.6918 151.151 65.0289 151.729 64.7624 152.555C64.262 154.121 63.4301 155.038 62.4877 155.077C62.0782 155.09 61.6817 154.94 61.3048 154.635C60.9473 154.342 60.5444 154.199 60.1414 154.199V154.206Z" fill="black"/>
<path d="M67.138 181.489C59.8912 181.489 53.9638 174.749 53.6453 166.144C53.4764 161.497 55.0232 157.045 57.8959 153.925C59.0333 152.684 60.8141 152.56 62.1335 153.639C62.283 153.763 62.374 153.782 62.4195 153.789C62.6664 153.776 63.1539 153.334 63.5309 152.17C63.9663 150.805 65.0842 149.895 66.3776 149.843C66.696 149.83 66.995 149.837 67.294 149.843C68.5289 149.902 69.6272 150.721 70.1147 151.93C70.5697 153.054 71.0766 153.464 71.3041 153.464C71.3756 153.464 71.4536 153.425 71.5316 153.366C72.7794 152.417 74.3978 152.508 75.4702 153.581C78.3754 156.473 80.1367 160.697 80.3057 165.175C80.4617 169.361 79.2398 173.365 76.8675 176.439C74.4563 179.565 71.1481 181.359 67.554 181.489H67.138ZM60.2162 154.848C60.2162 154.848 60.1707 154.848 60.1447 154.848C59.8457 154.848 59.5533 154.984 59.3323 155.225C56.8105 157.974 55.4457 161.919 55.5951 166.059C55.8746 173.703 61.2301 179.727 67.4825 179.519C70.4917 179.409 73.2734 177.888 75.3207 175.23C77.4135 172.52 78.4859 168.971 78.3494 165.227C78.2064 161.243 76.653 157.493 74.0858 154.939C73.7088 154.562 73.1629 154.542 72.7014 154.893C72.2985 155.199 71.8435 155.374 71.3756 155.394C70.1212 155.4 69.0098 154.406 68.2949 152.638C68.0869 152.131 67.6644 151.793 67.2095 151.767C66.9625 151.754 66.709 151.754 66.4621 151.767C65.9941 151.787 65.5587 152.177 65.3702 152.749C64.7852 154.581 63.7388 155.667 62.504 155.719C61.932 155.732 61.3861 155.537 60.8856 155.134C60.6711 154.958 60.4437 154.861 60.2032 154.848H60.2162Z" fill="black"/>
<path d="M108.001 158.253C107.416 157.356 106.37 157.129 105.428 157.57C105.155 157.7 104.882 157.746 104.609 157.7C103.796 157.557 103.218 156.576 102.971 155.153C102.815 154.23 102.191 153.515 101.385 153.3C101.119 153.229 100.846 153.17 100.573 153.118H100.553C99.6822 152.962 98.7918 153.456 98.2913 154.321C97.5699 155.569 96.6925 156.29 95.8735 156.147C95.5421 156.089 95.2496 155.894 95.0091 155.582C94.2812 154.672 93.0918 154.477 92.1299 155.159C88.9972 157.369 86.599 161.087 85.793 165.584C84.3567 173.663 88.6398 181.183 95.3601 182.379C102.08 183.574 108.697 177.991 110.133 169.913C110.907 165.565 110.023 161.379 107.995 158.259H108.001V158.253Z" fill="#FDF353"/>
<path d="M97.196 183.192C96.5461 183.192 95.8961 183.134 95.2462 183.017C88.1814 181.763 83.6579 173.892 85.1527 165.469C85.9586 160.971 88.3634 157.02 91.756 154.628C92.9844 153.757 94.5638 153.984 95.5192 155.174C95.6687 155.369 95.8246 155.473 95.9871 155.505C96.4551 155.583 97.1505 154.992 97.729 153.991C98.3724 152.879 99.5033 152.288 100.628 152.47C100.654 152.47 100.673 152.47 100.693 152.477C100.979 152.529 101.271 152.594 101.551 152.672C102.603 152.951 103.416 153.88 103.611 155.044C103.806 156.181 104.241 156.974 104.722 157.059C104.852 157.085 104.995 157.059 105.151 156.981C106.419 156.383 107.809 156.766 108.55 157.897C108.57 157.929 108.589 157.962 108.602 158.001C110.747 161.361 111.54 165.735 110.773 170.025C110.052 174.08 108.056 177.668 105.145 180.118C102.759 182.133 99.9907 183.186 97.196 183.186V183.192ZM93.3614 155.401C93.0689 155.401 92.7764 155.499 92.5035 155.694C89.3903 157.89 87.174 161.537 86.4331 165.703C85.0617 173.417 89.1173 180.612 95.4737 181.743C98.5349 182.289 101.668 181.36 104.306 179.13C106.984 176.875 108.823 173.56 109.493 169.804C110.208 165.794 109.46 161.712 107.452 158.618C107.432 158.592 107.419 158.566 107.406 158.534C107.01 158.001 106.354 157.858 105.704 158.163C105.307 158.352 104.904 158.417 104.501 158.345C103.409 158.157 102.642 157.059 102.33 155.265C102.22 154.602 101.785 154.082 101.219 153.932C100.979 153.867 100.738 153.815 100.491 153.77C100.472 153.77 100.452 153.77 100.439 153.77C99.8607 153.666 99.2238 154.023 98.8533 154.66C97.9434 156.233 96.845 156.994 95.7597 156.799C95.2722 156.714 94.8367 156.435 94.4923 155.993C94.1868 155.609 93.7838 155.414 93.3614 155.414V155.401Z" fill="black"/>
<path d="M97.1766 182.861C96.5526 182.861 95.9287 182.809 95.3048 182.698C88.4154 181.476 84.0089 173.768 85.4777 165.527C86.2642 161.114 88.6169 157.24 91.9446 154.894C93.03 154.127 94.4273 154.335 95.2658 155.381C95.4672 155.635 95.6947 155.784 95.9352 155.83C96.5721 155.947 97.3456 155.316 98.015 154.159C98.5934 153.158 99.6138 152.619 100.615 152.795C100.914 152.847 101.193 152.911 101.473 152.983C102.402 153.23 103.123 154.055 103.299 155.095C103.526 156.415 104.04 157.266 104.67 157.377C104.865 157.409 105.073 157.377 105.294 157.273C106.425 156.746 107.621 157.065 108.277 158.072C110.422 161.38 111.222 165.709 110.461 169.959C109.129 177.453 103.39 182.854 97.1831 182.854H97.1766V182.861ZM93.3615 155.076C93.0105 155.076 92.6465 155.186 92.3216 155.42C89.1369 157.669 86.8751 161.393 86.1212 165.637C84.7173 173.527 88.8899 180.891 95.4282 182.055C101.967 183.218 108.42 177.746 109.824 169.855C110.552 165.767 109.792 161.601 107.732 158.436C107.257 157.708 106.393 157.481 105.567 157.871C105.229 158.033 104.891 158.085 104.56 158.02C103.63 157.858 102.941 156.831 102.662 155.206C102.526 154.419 101.999 153.795 101.31 153.613C101.05 153.548 100.79 153.49 100.524 153.438C99.7828 153.308 99.0159 153.73 98.5804 154.484C97.755 155.914 96.7541 156.636 95.8247 156.467C95.4217 156.395 95.0643 156.168 94.7588 155.791C94.3883 155.323 93.8814 155.082 93.368 155.082H93.3615V155.076Z" fill="black"/>
<path d="M97.1785 183.511C96.5091 183.511 95.8396 183.453 95.1962 183.336C91.6735 182.712 88.6513 180.482 86.695 177.064C84.7647 173.684 84.1018 169.544 84.8427 165.41C85.6616 160.828 88.1119 156.799 91.576 154.361C92.9474 153.393 94.7152 153.647 95.7811 154.972C95.8786 155.096 95.9826 155.174 96.0671 155.187C96.2816 155.219 96.847 154.894 97.4645 153.829C98.1859 152.587 99.4663 151.931 100.74 152.152C101.059 152.204 101.351 152.275 101.65 152.353C102.839 152.672 103.736 153.705 103.957 154.985C104.165 156.188 104.581 156.695 104.802 156.734C104.861 156.74 104.945 156.727 105.036 156.682C106.473 156.012 108 156.428 108.838 157.715C111.074 161.166 111.906 165.67 111.12 170.07C109.761 177.694 103.827 183.453 97.2825 183.498C97.25 183.498 97.224 183.498 97.1915 183.498L97.1785 183.511ZM93.2984 155.726C93.0904 155.739 92.8889 155.817 92.7069 155.947C89.6522 158.105 87.4879 161.673 86.7665 165.748C86.1166 169.414 86.682 173.073 88.3654 176.043C90.0292 178.975 92.5769 180.885 95.5472 181.412C98.5174 181.938 101.566 181.028 104.139 178.851C106.746 176.641 108.539 173.405 109.189 169.739C109.891 165.807 109.163 161.816 107.194 158.788C106.895 158.333 106.382 158.203 105.849 158.456C105.387 158.677 104.906 158.749 104.438 158.658C103.236 158.45 102.352 157.228 102.027 155.317C101.936 154.784 101.592 154.361 101.15 154.245C100.909 154.186 100.662 154.128 100.402 154.076C99.9602 153.998 99.4468 154.29 99.1478 154.81C98.1794 156.493 96.925 157.332 95.7096 157.104C95.1507 157.007 94.6632 156.701 94.2538 156.201C94.0133 155.895 93.7013 155.733 93.3699 155.733C93.3439 155.733 93.3179 155.733 93.2984 155.733V155.726Z" fill="black"/>
<path d="M108.563 105.347C111.05 105.347 113.067 104.416 113.067 103.267C113.067 102.119 111.05 101.188 108.563 101.188C106.075 101.188 104.059 102.119 104.059 103.267C104.059 104.416 106.075 105.347 108.563 105.347Z" fill="#FFDEFF"/>
<path d="M67.4572 105.347C69.9447 105.347 71.9612 104.416 71.9612 103.267C71.9612 102.119 69.9447 101.188 67.4572 101.188C64.9697 101.188 62.9531 102.119 62.9531 103.267C62.9531 104.416 64.9697 105.347 67.4572 105.347Z" fill="#FFDEFF"/>
<path d="M53.557 115.777C48.481 112.293 24.6024 105.3 26.0387 114.015C26.5782 117.285 28.8335 120.963 31.4332 124.284C35.7358 129.77 41.0327 134.326 46.9407 137.881L50.3723 139.948" fill="#075AA3"/>
<path d="M50.3723 140.926C50.2034 140.926 50.0279 140.88 49.8719 140.789L46.4402 138.723C40.2528 134.998 34.9429 130.345 30.6663 124.892C27.4556 120.784 25.5708 117.184 25.0769 114.181C24.6934 111.867 25.8178 110.619 26.8317 109.976C32.4211 106.421 50.0929 112.218 54.1095 114.98C54.5514 115.286 54.6684 115.89 54.3629 116.332C54.0575 116.774 53.453 116.891 53.0111 116.586C49.0465 113.863 32.3431 108.787 27.8846 111.62C27.1047 112.114 26.8382 112.81 27.0072 113.863C27.4491 116.54 29.1974 119.848 32.2066 123.69C36.3337 128.954 41.4617 133.452 47.4476 137.052L50.8793 139.119C51.3407 139.399 51.4902 139.996 51.2108 140.458C51.0288 140.763 50.7038 140.932 50.3723 140.932V140.926Z" fill="black"/>
<path d="M50.2171 140.235L46.7854 138.168C40.6695 134.483 35.418 129.881 31.1869 124.493C28.0413 120.483 26.2019 116.98 25.7275 114.075C25.4675 112.502 25.9615 111.306 27.1898 110.526C32.2203 107.328 49.3656 112.508 53.7527 115.511L53.3822 116.044C49.2097 113.184 32.2788 108.056 27.5408 111.065C26.5399 111.702 26.1564 112.651 26.3709 113.958C26.8324 116.752 28.6262 120.158 31.7069 124.077C35.886 129.407 41.079 133.956 47.1234 137.596L50.555 139.663L50.2171 140.222V140.235Z" fill="black"/>
<path d="M78.6633 90.5446L78.0199 90.4796C78.3708 87.1259 75.9271 84.1167 72.5799 83.7658C69.2198 83.4213 66.2171 85.8586 65.8661 89.2057L65.2227 89.1407C65.6126 85.4296 68.9468 82.7389 72.6514 83.1223C76.3625 83.5123 79.0598 86.84 78.6698 90.5511H78.6633V90.5446Z" fill="black"/>
<path d="M78.6753 91.1934C78.6233 91.1934 78.5713 91.1934 78.5259 91.1739L77.9604 91.1154C77.7914 91.0959 77.6289 91.0115 77.5184 90.8815C77.408 90.745 77.356 90.576 77.3755 90.4005C77.6874 87.4043 75.5102 84.7136 72.5139 84.4016C69.5177 84.0961 66.827 86.2734 66.515 89.2631C66.476 89.6206 66.1576 89.8676 65.8066 89.8416L65.1632 89.7766C64.9877 89.7571 64.8317 89.6726 64.7212 89.5426C64.6107 89.4126 64.5587 89.2371 64.5782 89.0616C65.0072 85.006 68.6468 82.0488 72.7219 82.4648C74.6912 82.6728 76.4591 83.6347 77.7069 85.1685C78.9548 86.7089 79.5268 88.6392 79.3188 90.6085C79.2928 90.8555 79.1238 91.0699 78.8898 91.1544C78.8183 91.1804 78.7468 91.1934 78.6753 91.1934Z" fill="black"/>
<path d="M119.77 92.5144L119.127 92.4429C119.484 89.0957 117.053 86.0735 113.706 85.716C110.359 85.3586 107.337 87.7893 106.979 91.1365L106.336 91.065C106.732 87.3604 110.073 84.6696 113.784 85.0661C117.489 85.4626 120.18 88.8032 119.783 92.5144H119.77Z" fill="black"/>
<path d="M119.785 93.1607C119.785 93.1607 119.726 93.1607 119.7 93.1607L119.057 93.0892C118.699 93.0502 118.446 92.7318 118.485 92.3743C118.641 90.925 118.218 89.5016 117.302 88.3642C116.385 87.2268 115.086 86.5119 113.636 86.3624C112.193 86.2064 110.764 86.6289 109.626 87.5453C108.489 88.4617 107.774 89.7616 107.624 91.2044C107.605 91.3734 107.52 91.5359 107.384 91.6399C107.247 91.7504 107.072 91.8024 106.903 91.7764L106.259 91.7049C105.902 91.6659 105.649 91.3474 105.688 90.99C106.123 86.9279 109.782 83.9836 113.851 84.4126C117.913 84.8481 120.864 88.5072 120.428 92.5758C120.396 92.9073 120.116 93.1542 119.785 93.1542V93.1607Z" fill="black"/>
<path d="M105.974 151.591L64.3329 149.758C60.1084 149.57 60.6023 147.529 65.2299 145.332L85.2674 135.83C88.6925 134.205 94.061 133.12 97.3107 133.341L129.742 135.596C132.674 135.798 133.298 137.215 131.068 138.8L118.174 147.984C115.223 150.083 109.685 151.754 105.974 151.585V151.591Z" fill="#828282"/>
<path d="M106.494 151.927C106.312 151.927 106.13 151.927 105.954 151.914L64.3129 150.074C62.3696 149.99 61.3037 149.522 61.1347 148.69C60.9202 147.644 62.3241 146.344 65.0928 145.031L85.1303 135.529C88.5425 133.911 94.0149 132.786 97.3361 133.014L129.768 135.269C131.425 135.386 132.465 135.893 132.693 136.692C132.836 137.206 132.706 138.031 131.263 139.065L118.368 148.248C115.443 150.334 110.25 151.92 106.507 151.92H106.494V151.927ZM105.987 151.264C109.555 151.426 115.066 149.801 117.985 147.722L130.879 138.538C131.75 137.914 132.186 137.31 132.062 136.874C131.919 136.374 131.042 136.016 129.722 135.925L97.2906 133.67C94.0734 133.443 88.7374 134.547 85.4098 136.127L65.3723 145.629C62.5515 146.968 61.6676 148.047 61.7781 148.573C61.8171 148.749 62.1031 149.34 64.3519 149.437L105.993 151.277V151.264H105.987Z" fill="black"/>
<path d="M100.754 150.014L59.1061 148.175C55.356 148.013 51.6059 144.711 50.7219 140.798L46.1139 120.332C45.165 116.114 47.5568 112.617 51.4824 112.617H95.2035C99.6101 112.617 103.763 116.367 104.381 120.897L107.37 142.8C107.942 146.973 104.946 150.196 100.76 150.008L100.754 150.014Z" fill="#B7B7B7"/>
<path d="M101.101 150.347C100.984 150.347 100.861 150.347 100.744 150.34L59.0962 148.501C55.216 148.332 51.3164 144.907 50.413 140.871L45.805 120.404C45.2915 118.129 45.7075 115.939 46.9424 114.392C48.0278 113.04 49.6396 112.293 51.4854 112.293H95.2066C99.8016 112.293 104.065 116.134 104.709 120.853L107.698 142.755C107.984 144.855 107.419 146.805 106.112 148.234C104.865 149.599 103.103 150.34 101.108 150.34L101.101 150.347ZM51.4789 112.943C49.8346 112.943 48.3982 113.599 47.4428 114.795C46.3314 116.186 45.961 118.175 46.4289 120.255L51.037 140.721C51.8884 144.491 55.5085 147.682 59.1156 147.844L100.764 149.677C102.7 149.762 104.429 149.092 105.619 147.792C106.795 146.499 107.302 144.744 107.042 142.833L104.052 120.931C103.461 116.596 99.4051 112.93 95.1936 112.93H51.4724V112.943H51.4789Z" fill="black"/>
<path d="M106.228 147.695H57.5283C56.1643 147.695 55.0586 148.801 55.0586 150.165V150.172C55.0586 151.536 56.1643 152.641 57.5283 152.641H106.228C107.592 152.641 108.698 151.536 108.698 150.172V150.165C108.698 148.801 107.592 147.695 106.228 147.695Z" fill="#B7B7B7"/>
<path d="M106.23 152.964H57.5369C55.9966 152.964 54.7422 151.71 54.7422 150.17C54.7422 148.629 55.9966 147.375 57.5369 147.375H106.23C107.77 147.375 109.025 148.629 109.025 150.17C109.025 151.71 107.77 152.964 106.23 152.964ZM57.5304 148.018C56.3475 148.018 55.3856 148.98 55.3856 150.163C55.3856 151.346 56.3475 152.308 57.5304 152.308H106.224C107.406 152.308 108.368 151.346 108.368 150.163C108.368 148.98 107.406 148.018 106.224 148.018H57.5304Z" fill="black"/>
<path d="M131.588 110.73C124.751 113.629 100.137 133.381 108.288 137.592C111.342 139.172 116.093 139.276 120.838 138.782C128.663 137.976 136.547 135.545 144.106 131.847L148.499 129.696" fill="#075AA3"/>
<path d="M116.172 140.016C112.637 140.016 109.842 139.497 107.834 138.457C106.358 137.696 105.611 136.442 105.676 134.83C105.962 127.232 125.44 112.271 131.205 109.827C131.699 109.619 132.271 109.846 132.486 110.34C132.7 110.834 132.466 111.406 131.972 111.621C126.168 114.084 107.866 128.727 107.632 134.901C107.6 135.746 107.938 136.305 108.737 136.721C111.233 138.015 115.269 138.379 120.741 137.807C128.268 137.033 135.989 134.732 143.684 130.963L148.078 128.812C148.559 128.578 149.143 128.773 149.384 129.26C149.618 129.741 149.423 130.326 148.935 130.566L144.542 132.718C136.639 136.585 128.703 138.951 120.943 139.743C119.233 139.919 117.648 140.01 116.185 140.01L116.172 140.016Z" fill="black"/>
<path d="M116.174 139.367C112.742 139.367 110.051 138.867 108.134 137.879C106.886 137.229 106.275 136.215 106.327 134.857C106.6 127.643 125.949 112.766 131.454 110.426L131.707 111.024C125.643 113.597 107.224 128.357 106.977 134.876C106.938 135.975 107.413 136.768 108.433 137.294C111.039 138.639 115.199 139.029 120.801 138.451C128.419 137.665 136.205 135.344 143.959 131.549L148.352 129.397L148.638 129.982L144.245 132.134C136.426 135.962 128.562 138.302 120.873 139.094C119.183 139.27 117.617 139.354 116.18 139.354V139.367H116.174Z" fill="black"/>
<path d="M116.177 140.342C112.603 140.342 109.749 139.803 107.689 138.743C106.09 137.911 105.284 136.553 105.356 134.818C105.661 126.778 126.141 111.621 131.074 109.529C131.314 109.431 131.581 109.425 131.821 109.529C132.062 109.626 132.25 109.815 132.354 110.055L132.608 110.653C132.816 111.147 132.588 111.719 132.094 111.933C125.595 114.696 108.177 129.17 107.956 134.928C107.93 135.65 108.203 136.092 108.885 136.443C111.322 137.697 115.3 138.054 120.707 137.495C128.208 136.722 135.89 134.428 143.54 130.684L147.933 128.533C148.167 128.422 148.434 128.403 148.681 128.487C148.928 128.572 149.129 128.747 149.24 128.981L149.526 129.566C149.76 130.047 149.565 130.632 149.077 130.866L144.684 133.017C136.767 136.891 128.793 139.27 120.98 140.076C119.343 140.245 117.783 140.336 116.34 140.342C116.288 140.349 116.236 140.355 116.184 140.355L116.177 140.342Z" fill="black"/>
<path d="M51.0006 113C46.1672 90 40.8006 42 58.0006 34" stroke="black"/>
<path d="M8.125 29.375H30.875C32.3864 29.375 33.625 30.6136 33.625 32.125V54.875C33.625 56.3864 32.3864 57.625 30.875 57.625H8.125C6.61364 57.625 5.375 56.3864 5.375 54.875V32.125C5.375 30.6136 6.61364 29.375 8.125 29.375ZM28.5752 34.8721C28.0131 34.8722 27.4737 35.0957 27.0762 35.4932L16.25 46.3193L11.9238 41.9932C11.727 41.7963 11.4926 41.6398 11.2354 41.5332C10.9783 41.4268 10.703 41.3721 10.4248 41.3721C10.1464 41.3721 9.87046 41.4267 9.61328 41.5332C9.35605 41.6398 9.12168 41.7963 8.9248 41.9932C8.72813 42.1899 8.57229 42.4236 8.46582 42.6807C8.35928 42.9379 8.30469 43.2138 8.30469 43.4922C8.30473 43.7705 8.35931 44.0466 8.46582 44.3037C8.57234 44.5607 8.72811 44.7945 8.9248 44.9912L14.7588 50.8242C14.9556 51.0214 15.189 51.1784 15.4463 51.2852C15.7035 51.3918 15.9794 51.4462 16.2578 51.4463C16.5364 51.4463 16.813 51.3919 17.0703 51.2852C17.3275 51.1784 17.5611 51.0213 17.7578 50.8242L30.0752 38.4912C30.4727 38.0937 30.6952 37.5543 30.6953 36.9922C30.6953 36.4301 30.4725 35.8907 30.0752 35.4932C29.6776 35.0956 29.1375 34.8721 28.5752 34.8721Z" fill="#FDF353" stroke="#555555"/>
<path d="M19 58.125C24.999 69.8545 39.3975 94.2281 49 97.8867" stroke="black"/>
<path d="M67.4209 3.4043C67.4535 3.40734 67.4855 3.41414 67.5166 3.42383L67.6064 3.46191L71.2539 5.50293L71.498 5.63965L71.7422 5.50293L75.3857 3.46582C75.4428 3.43412 75.5063 3.41512 75.5713 3.40918C75.6363 3.40329 75.7018 3.41073 75.7637 3.43164L75.7656 3.43262C77.1367 3.89204 78.4206 4.5754 79.5654 5.4541L80.0479 5.84277C80.0995 5.88659 80.1413 5.9415 80.1699 6.00293C80.1984 6.06433 80.2137 6.13152 80.2139 6.19922L80.2275 10.2705L80.2285 10.5596L80.4805 10.7031L84.0928 12.7617C84.1512 12.795 84.2019 12.8409 84.2412 12.8955C84.2804 12.95 84.3073 13.0122 84.3203 13.0781L84.3213 13.0791C84.5997 14.4748 84.6348 15.9065 84.4277 17.3115L84.3242 17.9121C84.3112 17.9779 84.2843 18.0403 84.2451 18.0947C84.2254 18.1221 84.2027 18.1475 84.1777 18.1699L84.0967 18.2285L80.4844 20.2871L80.2324 20.4297L80.2314 20.7188L80.2139 24.7939C80.2136 24.8617 80.1986 24.9288 80.1699 24.9902C80.1414 25.0515 80.0994 25.1057 80.0479 25.1494L80.0469 25.1504C78.944 26.0858 77.6948 26.8309 76.3506 27.3564L75.7695 27.5674C75.7205 27.5838 75.6689 27.5927 75.6172 27.5928H75.6143C75.5354 27.5933 75.4575 27.5726 75.3887 27.5342H75.3877L71.7422 25.4941L71.498 25.3574L71.2539 25.4941L67.6064 27.5371C67.5495 27.5687 67.4867 27.5888 67.4219 27.5947C67.3567 27.6007 67.2905 27.5923 67.2285 27.5713H67.2275C65.6603 27.0462 64.2072 26.2276 62.9453 25.1602C62.8937 25.1164 62.8519 25.0623 62.8232 25.001C62.7947 24.9396 62.7796 24.8724 62.7793 24.8047V24.8037L62.7646 20.7314L62.7637 20.4424L62.5127 20.2988L58.9004 18.2402H58.8994C58.8411 18.207 58.7902 18.1619 58.751 18.1074C58.7313 18.0801 58.7155 18.0502 58.7021 18.0195L58.6719 17.9238C58.3542 16.327 58.3542 14.6828 58.6719 13.0859V13.085C58.6849 13.0192 58.7118 12.9568 58.751 12.9023C58.7903 12.8478 58.841 12.8018 58.8994 12.7686H58.9004L62.5127 10.71L62.7637 10.5674L62.7646 10.2783L62.7832 6.20312C62.7835 6.13541 62.7985 6.06821 62.8271 6.00684C62.8557 5.94574 62.8968 5.89129 62.9482 5.84766L62.9492 5.84668C64.209 4.77641 65.6612 3.95519 67.2275 3.42676C67.2896 3.40584 67.3557 3.39825 67.4209 3.4043ZM73.543 10.5615C72.5667 10.1572 71.4925 10.0517 70.4561 10.2578C69.4196 10.464 68.467 10.9725 67.7197 11.7197C66.9724 12.4671 66.463 13.4195 66.2568 14.4561C66.0507 15.4926 66.1571 16.5675 66.5615 17.5439C66.966 18.5201 67.6507 19.3543 68.5293 19.9414C69.408 20.5286 70.4412 20.8428 71.498 20.8428C72.9152 20.8428 74.2742 20.2793 75.2764 19.2773C76.2784 18.2753 76.8417 16.9161 76.8418 15.499C76.8418 14.4421 76.5286 13.4081 75.9414 12.5293C75.3542 11.6507 74.5193 10.9659 73.543 10.5615Z" fill="#FDF353" stroke="#555555"/>
<path d="M84.5 17.0012C94.8333 15.0012 116.4 11.6012 120 14.0012" stroke="black"/>
<path d="M125.313 10.1729C126.986 10.3897 130.68 11.0174 133.782 12.1055L134.891 12.4941L134.876 12.4639L135.001 12.5098C135.332 12.6318 135.778 12.8242 136.149 12.9902C136.333 13.0724 136.496 13.1474 136.612 13.2012C136.671 13.2281 136.718 13.2497 136.75 13.2646C136.766 13.2721 136.778 13.2784 136.786 13.2822C136.79 13.2842 136.794 13.2852 136.796 13.2861L136.798 13.2871L136.799 13.2881L136.913 13.3418L137.039 13.335L137.624 13.3027C137.627 13.3027 137.632 13.3028 137.636 13.3027C137.647 13.3025 137.662 13.3018 137.679 13.3008C137.713 13.2988 137.759 13.2942 137.812 13.2861C137.866 13.2782 137.93 13.2656 138 13.2461L137.856 13.7803H137.857C137.859 13.7809 137.86 13.7826 137.863 13.7842C137.869 13.7873 137.878 13.7922 137.891 13.7988C137.915 13.8121 137.952 13.8316 138 13.8584C138.095 13.9119 138.232 13.9916 138.397 14.0938C138.729 14.2988 139.169 14.5921 139.605 14.9463C140.045 15.3024 140.466 15.7088 140.773 16.1367C141.083 16.5673 141.251 16.9816 141.25 17.3662V17.3672C141.25 17.6884 141.099 17.9749 140.757 18.2471C140.403 18.5281 139.875 18.7654 139.216 18.9531C137.901 19.3272 136.217 19.4619 134.802 19.4619C133.886 19.4619 133.369 19.4609 133.082 19.459C132.938 19.458 132.852 19.4568 132.803 19.4561C132.778 19.4557 132.763 19.4553 132.754 19.4551C132.75 19.455 132.747 19.4551 132.746 19.4551L132.494 19.4473L132.338 19.6436L132.337 19.6445C132.336 19.6454 132.336 19.6474 132.334 19.6494C132.331 19.6537 132.325 19.6601 132.317 19.6689C132.303 19.6866 132.282 19.7137 132.254 19.748C132.197 19.8168 132.113 19.917 132.007 20.041C131.793 20.2893 131.488 20.6313 131.125 21.0059C130.39 21.7635 129.448 22.6203 128.55 23.1182L128.101 23.3672L128.132 23.4209L127.9 23.5635L127.897 23.5654C127.895 23.5672 127.89 23.5704 127.884 23.5742C127.871 23.5819 127.851 23.5931 127.824 23.6084C127.771 23.6391 127.692 23.6843 127.592 23.7383C127.39 23.8465 127.103 23.9912 126.764 24.1357C126.074 24.4296 125.217 24.7021 124.438 24.7021C123.865 24.7021 123.623 24.5277 123.516 24.4062C123.394 24.268 123.368 24.1071 123.368 24.0449C123.368 23.9396 123.41 23.7068 123.504 23.4297C123.552 23.2879 123.608 23.1532 123.666 23.0361C123.712 23.1763 123.793 23.3331 123.932 23.4775C124.196 23.7533 124.607 23.9238 125.183 23.9238C125.751 23.9238 126.359 23.7372 126.795 23.5713C127.019 23.486 127.211 23.4009 127.348 23.3369C127.416 23.3048 127.471 23.2771 127.51 23.2578C127.529 23.2482 127.544 23.2409 127.555 23.2354C127.56 23.2326 127.564 23.2301 127.567 23.2285C127.569 23.2277 127.57 23.2271 127.571 23.2266L127.572 23.2256H127.573L128.037 22.9795L128.033 22.9736L128.382 22.7881C128.808 22.5613 130.443 21.5418 131.983 19.9844C132.172 19.7933 132.36 19.5921 132.546 19.3828L133.493 19.3887H133.498C133.501 19.3887 133.504 19.3896 133.509 19.3896C133.518 19.3896 133.533 19.3888 133.551 19.3887C133.586 19.3884 133.638 19.3881 133.702 19.3867C133.832 19.384 134.016 19.3778 134.236 19.3652C134.676 19.3402 135.268 19.2888 135.865 19.1797C136.454 19.0721 137.087 18.902 137.586 18.623C138.082 18.3457 138.554 17.8918 138.555 17.1982C138.555 16.6628 138.311 16.1711 138.016 15.7656C137.716 15.3548 137.328 14.9834 136.957 14.6758C136.583 14.366 136.212 14.1087 135.936 13.9297C135.797 13.8398 135.681 13.7687 135.599 13.7197C135.558 13.6953 135.525 13.6762 135.502 13.6631C135.491 13.6566 135.482 13.651 135.476 13.6475L135.466 13.6426L135.465 13.6416L134.712 13.2227V13.2793C132.624 12.2162 130.176 11.4538 128.257 10.957C127.284 10.7052 126.44 10.5197 125.84 10.3975C125.631 10.3548 125.45 10.3205 125.305 10.293C125.307 10.2533 125.31 10.2131 125.313 10.1729ZM120.186 5.57617C120.484 5.57634 120.823 5.79655 121.141 6.13672C121.18 6.17941 121.216 6.2244 121.252 6.2666C121.185 6.25386 121.116 6.24515 121.044 6.24512C120.183 6.24512 119.237 7.2257 119.237 9.3252V9.5918L119.173 9.58691L119.214 10.1699C119.26 10.835 119.51 12.71 120.286 14.6904C120.401 14.9824 120.529 15.2782 120.669 15.5742L120.417 15.0977L119.956 15.8262L119.955 15.8271L119.954 15.8281C119.953 15.8294 119.953 15.8318 119.951 15.834C119.948 15.8384 119.944 15.8446 119.939 15.8525C119.929 15.8686 119.915 15.8923 119.897 15.9219C119.862 15.981 119.811 16.0661 119.751 16.1719C119.631 16.3833 119.472 16.6806 119.312 17.0234C119.001 17.6895 118.651 18.6046 118.651 19.4131C118.651 19.7849 118.735 20.2577 119.101 20.6338C119.468 21.0118 120.03 21.2012 120.784 21.2012C122.078 21.2012 123.14 20.8933 124.387 20.2344L124.81 20.0098L124.87 20.04L125.093 19.9248C128.205 18.3256 131.512 15.2503 132.748 13.9805C132.798 14.0109 132.851 14.042 132.902 14.0752C132.91 14.08 132.917 14.085 132.925 14.0898C131.501 15.7465 129.774 17.4113 126.944 19.6533L126.562 19.9561L126.348 19.9443L126.407 20.0781L126.34 20.1318L126.249 19.9795L125.814 20.4365C125.805 20.4435 125.792 20.4542 125.773 20.4668C125.726 20.4992 125.66 20.5421 125.58 20.5938C125.42 20.6968 125.215 20.8261 125.01 20.9531C124.805 21.0799 124.604 21.2038 124.453 21.2959C124.378 21.3419 124.315 21.3797 124.271 21.4062L124.208 21.4453C124.207 21.4462 124.205 21.4468 124.204 21.4473V21.4482H124.203L124.119 21.499L124.061 21.5791L124.363 21.8027C124.06 21.5794 124.06 21.58 124.06 21.5801L124.059 21.5811L124.058 21.583C124.056 21.5848 124.055 21.5872 124.053 21.5898C124.049 21.5953 124.043 21.6024 124.037 21.6113C124.025 21.6291 124.008 21.6534 123.988 21.6836C123.949 21.7439 123.898 21.8298 123.846 21.9307C123.772 22.0733 123.675 22.2873 123.635 22.5254L123.208 22.0117C123.038 22.0994 122.468 22.3765 121.729 22.6309C120.983 22.8872 120.099 23.1084 119.289 23.1084C118.341 23.1083 117.88 22.8177 117.644 22.5361C117.393 22.2369 117.319 21.8567 117.319 21.5635C117.319 20.3314 117.997 18.7813 118.732 17.4814C119.093 16.8444 119.454 16.2898 119.726 15.8945C119.861 15.6972 119.974 15.5397 120.052 15.4326C120.091 15.3794 120.121 15.3387 120.142 15.3115C120.152 15.2979 120.16 15.2879 120.165 15.2812C120.168 15.2779 120.169 15.2749 120.17 15.2734L120.172 15.2715L120.361 15.0244L120.223 14.7441L120.222 14.7432C120.221 14.7422 120.221 14.7404 120.22 14.7383C120.217 14.7337 120.214 14.7264 120.209 14.7168C120.2 14.6974 120.185 14.6681 120.167 14.6299C120.13 14.5531 120.078 14.4394 120.014 14.2969C119.885 14.0116 119.712 13.6092 119.535 13.1426C119.177 12.1983 118.817 11.0325 118.747 10.0469L118.716 9.61719L118.672 9.61328V9.36719C118.672 8.2743 118.795 7.2747 119.075 6.56738C119.353 5.86457 119.723 5.57617 120.186 5.57617ZM126.594 20.4912L126.686 20.6953L126.687 20.6963L126.688 20.6982C126.688 20.7004 126.69 20.704 126.691 20.708C126.695 20.7159 126.7 20.7276 126.707 20.7422C126.71 20.7476 126.712 20.7535 126.715 20.7598L126.588 20.5459L126.553 20.4873L126.594 20.4912ZM124.952 1.9375C125.526 1.9375 126.166 2.22991 126.837 2.75684C127.5 3.27747 128.138 3.98421 128.701 4.70898C129.262 5.43101 129.735 6.1556 130.068 6.70117C130.235 6.97328 130.365 7.19972 130.454 7.35742C130.498 7.43617 130.533 7.49762 130.556 7.53906C130.567 7.55956 130.575 7.57566 130.58 7.58594C130.583 7.59107 130.586 7.59527 130.587 7.59766L130.588 7.59961V7.60059L130.697 7.80664C130.668 7.80254 130.639 7.79793 130.61 7.79395L130.081 7.00781L130.08 7.00684L130.079 7.00488C130.078 7.00315 130.076 7.00015 130.074 6.99707C130.07 6.99092 130.063 6.98189 130.056 6.9707C130.04 6.9482 130.018 6.91557 129.989 6.875C129.932 6.7933 129.848 6.67752 129.744 6.53906C129.536 6.2627 129.243 5.89222 128.904 5.51953C128.568 5.1493 128.174 4.76344 127.765 4.4668C127.369 4.18028 126.887 3.92491 126.389 3.9248C125.438 3.9248 124.769 4.58468 124.356 5.38867C123.941 6.19855 123.722 7.25886 123.687 8.33691L123.658 9.19824L123.667 9.19238C123.637 11.094 124.139 13.3738 124.641 15.165C124.9 16.092 125.163 16.9017 125.361 17.4795C125.422 17.657 125.479 17.8125 125.525 17.9434C125.455 17.9709 125.382 17.9989 125.309 18.0273C124.623 16.6942 123.768 14.5153 122.938 10.5566L122.814 9.96777L122.856 9.90234L122.8 9.89746L122.735 9.58496L122.733 9.58594L122.712 9.36328V9.35938C122.712 9.35654 122.711 9.3522 122.711 9.34668C122.71 9.3355 122.708 9.31889 122.706 9.29785C122.702 9.25562 122.696 9.19469 122.689 9.12109C122.675 8.97338 122.656 8.77299 122.638 8.56543C122.599 8.13424 122.565 7.71541 122.564 7.61133V7.50488L122.552 7.47559L122.549 6.51367V6.46582C122.549 6.43208 122.551 6.38148 122.554 6.31641C122.559 6.18522 122.569 5.99524 122.59 5.76758C122.632 5.30996 122.717 4.70817 122.886 4.11328C123.057 3.51233 123.303 2.95514 123.646 2.55664C123.975 2.17323 124.39 1.9376 124.952 1.9375ZM131.506 7.92188C131.835 7.9621 132.299 8.02541 132.834 8.11914C133.911 8.30778 135.249 8.61317 136.361 9.08105L136.608 9.18555L136.646 9.16016L137.056 9.35254H137.057C137.058 9.35304 137.06 9.35424 137.062 9.35547C137.068 9.35793 137.076 9.36196 137.087 9.36719C137.109 9.37776 137.141 9.3938 137.184 9.41504C137.269 9.45787 137.391 9.52173 137.539 9.60352C137.836 9.76779 138.229 10.0021 138.618 10.2852C139.011 10.5705 139.384 10.8934 139.653 11.2295C139.927 11.57 140.057 11.8769 140.058 12.1426C140.058 12.282 140.003 12.3825 139.872 12.4805C139.723 12.592 139.494 12.6803 139.216 12.7412C139.026 12.7828 138.832 12.8033 138.659 12.8174C138.669 12.8049 138.681 12.7944 138.69 12.7812C138.83 12.5841 138.905 12.3408 138.905 12.0605C138.905 11.685 138.722 11.3556 138.53 11.1074C138.332 10.851 138.078 10.6188 137.836 10.4258C137.35 10.0388 136.845 9.75606 136.741 9.69922L136.517 9.57715L136.525 9.56738L135.961 9.2959H135.96L135.959 9.29492C135.958 9.2946 135.957 9.29442 135.956 9.29395C135.954 9.29292 135.951 9.29175 135.947 9.29004C135.94 9.28641 135.928 9.28094 135.914 9.27441C135.886 9.26138 135.845 9.24304 135.792 9.21973C135.686 9.17294 135.532 9.10697 135.334 9.02832C134.939 8.87107 134.37 8.66229 133.667 8.4541C132.984 8.25169 132.171 8.04955 131.267 7.89453C131.335 7.90214 131.416 7.91085 131.506 7.92188Z" fill="#FFF312" stroke="black"/>
</svg>
