<svg width="114" height="137" viewBox="0 0 114 137" fill="none" xmlns="http://www.w3.org/2000/svg">
<g clip-path="url(#clip0_928_2835)">
<path d="M105.055 55.4955C105.895 52.2422 106.36 48.8504 106.36 45.3598C106.369 20.8562 84.2634 0.980469 57.0067 0.980469C29.7499 0.980469 7.6439 20.8562 7.6439 45.3598C7.6439 48.8504 8.10856 52.2323 8.9489 55.4955C3.89695 63.2282 0.980469 72.2663 0.980469 81.9273C0.980469 110.327 26.0524 133.367 56.9968 133.367C87.9412 133.367 113.013 110.337 113.013 81.9273C113.013 72.2564 110.106 63.2183 105.055 55.4955Z" fill="#075AA3"/>
<path d="M57.0035 133.375C79.0623 133.375 96.9445 113.386 96.9445 88.7284C96.9445 64.0709 79.0623 44.082 57.0035 44.082C34.9447 44.082 17.0625 64.0709 17.0625 88.7284C17.0625 113.386 34.9447 133.375 57.0035 133.375Z" fill="white"/>
<path d="M57.0049 134.364C25.5662 134.364 0 110.84 0 81.9357C0 72.5614 2.71876 63.3652 7.87946 55.3259C7.05888 52.0429 6.64366 48.6907 6.64366 45.3682C6.65354 20.3504 29.2341 0 57.0049 0C84.7758 0 107.356 20.3504 107.356 45.3682C107.356 48.6907 106.941 52.0429 106.121 55.3259C111.281 63.3652 114 72.5614 114 81.9357C114 110.84 88.4338 134.364 56.9951 134.364H57.0049ZM57.0049 1.97769C30.3315 1.97769 8.63082 21.4382 8.63082 45.3682C8.63082 48.6709 9.05594 51.9935 9.90617 55.2566C9.97537 55.5236 9.93583 55.8104 9.77764 56.0477C4.67626 63.8497 1.97728 72.8086 1.97728 81.9357C1.97728 109.752 26.6636 132.387 57.0049 132.387C87.3463 132.387 112.033 109.762 112.033 81.9357C112.033 72.7988 109.334 63.8398 104.232 56.0477C104.084 55.8203 104.035 55.5236 104.104 55.2566C104.954 52.0033 105.379 48.6808 105.379 45.3682C105.379 21.4382 83.6784 1.97769 57.0049 1.97769Z" fill="black"/>
<path d="M54.9263 42.4809C58.617 31.5246 53.5217 19.9175 43.5456 16.5556C33.5695 13.1937 22.4905 19.3501 18.7998 30.3064C15.1091 41.2627 20.2044 52.8699 30.1804 56.2318C40.1565 59.5937 51.2356 53.4372 54.9263 42.4809Z" fill="white"/>
<path d="M96.7598 50.0218C100.45 39.0655 95.5901 27.5375 85.9038 24.2733C76.2175 21.009 65.3733 27.2447 61.6826 38.201C57.9919 49.1572 62.8523 60.6853 72.5386 63.9495C82.2249 67.2137 93.0691 60.9781 96.7598 50.0218Z" fill="white"/>
<path d="M33.2688 108.774C32.4186 107.983 31.1729 107.933 30.1843 108.547C29.8976 108.725 29.5911 108.814 29.2747 108.814C28.3157 108.814 27.4457 107.933 26.8822 106.559C26.5164 105.659 25.6464 105.066 24.6874 104.987C24.3612 104.967 24.0448 104.957 23.7186 104.957H23.6988C22.6706 104.957 21.7512 105.61 21.3557 106.559C20.7823 107.933 19.9222 108.814 18.9632 108.814C18.5776 108.814 18.202 108.665 17.8559 108.408C16.8376 107.627 15.4338 107.647 14.4748 108.497C11.3408 111.256 9.34375 115.399 9.34375 120.037C9.34375 128.363 15.7798 135.107 23.7186 135.107C31.6573 135.107 38.0934 128.353 38.0934 120.037C38.0934 115.557 36.2249 111.543 33.2688 108.774Z" fill="#FDF353"/>
<path d="M23.7072 136.096C15.2346 136.096 8.34375 128.888 8.34375 120.037C8.34375 115.291 10.3309 110.812 13.8109 107.756C15.106 106.619 17.0537 106.56 18.4476 107.627C18.6256 107.766 18.7937 107.835 18.9518 107.835C19.4363 107.835 20.0196 107.192 20.4348 106.184C20.9983 104.839 22.2737 103.969 23.6973 103.969C24.0631 103.969 24.4091 103.979 24.7453 104.008C26.0997 104.107 27.2861 104.967 27.7903 106.184C28.2055 107.182 28.7789 107.825 29.2732 107.825C29.4018 107.825 29.5303 107.786 29.6687 107.697C31.0726 106.827 32.7928 106.965 33.9396 108.043C37.2021 111.088 39.0805 115.459 39.0805 120.028C39.0805 128.888 32.1897 136.086 23.7171 136.086L23.7072 136.096ZM16.1935 108.834C15.808 108.834 15.4224 108.972 15.1159 109.239C12.0709 111.919 10.321 115.855 10.321 120.037C10.321 127.8 16.332 134.119 23.7072 134.119C31.0825 134.119 37.0934 127.8 37.0934 120.037C37.0934 116.013 35.4522 112.176 32.5852 109.496C32.0909 109.042 31.3296 108.992 30.6969 109.388C30.2421 109.664 29.7577 109.803 29.2634 109.803C27.9089 109.803 26.7028 108.755 25.9514 106.935C25.7339 106.401 25.2 106.026 24.597 105.976C24.3103 105.956 24.0038 105.946 23.7072 105.946C23.0745 105.946 22.5011 106.342 22.2539 106.935C21.4927 108.755 20.2964 109.803 18.9518 109.803C18.3587 109.803 17.7655 109.595 17.2415 109.19C16.935 108.953 16.5593 108.834 16.1935 108.834Z" fill="black"/>
<path d="M98.4095 108.774C97.5592 107.983 96.3135 107.933 95.3249 108.547C95.0382 108.725 94.7317 108.814 94.4153 108.814C93.4564 108.814 92.5864 107.933 92.0228 106.559C91.657 105.659 90.787 105.066 89.8281 104.987C89.5018 104.967 89.1854 104.957 88.8592 104.957H88.8394C87.8112 104.957 86.8918 105.61 86.4963 106.559C85.9229 107.933 85.0628 108.814 84.1038 108.814C83.7183 108.814 83.3426 108.665 82.9966 108.408C81.9783 107.627 80.5744 107.647 79.6154 108.497C76.4814 111.256 74.4844 115.399 74.4844 120.037C74.4844 128.363 80.9204 135.107 88.8592 135.107C96.798 135.107 103.234 128.353 103.234 120.037C103.234 115.557 101.365 111.543 98.4095 108.774Z" fill="#FDF353"/>
<path d="M88.8596 136.096C80.3869 136.096 73.4961 128.888 73.4961 120.037C73.4961 115.291 75.4833 110.812 78.9633 107.756C80.2584 106.619 82.206 106.56 83.6 107.627C83.7779 107.766 83.946 107.835 84.1042 107.835C84.5886 107.835 85.1719 107.192 85.5872 106.184C86.1507 104.839 87.426 103.969 88.8497 103.969C89.2155 103.969 89.5615 103.979 89.8976 104.008C91.2521 104.107 92.4384 104.967 92.9426 106.184C93.3579 107.182 93.9313 107.825 94.4256 107.825C94.5541 107.825 94.6826 107.786 94.8211 107.697C96.2249 106.827 97.9452 106.965 99.092 108.043C102.354 111.088 104.233 115.459 104.233 120.028C104.233 128.888 97.3421 136.086 88.8694 136.086L88.8596 136.096ZM81.336 108.834C80.9504 108.834 80.5649 108.972 80.2584 109.239C77.2134 111.919 75.4635 115.855 75.4635 120.037C75.4635 127.8 81.4744 134.119 88.8497 134.119C96.2249 134.119 102.236 127.8 102.236 120.037C102.236 116.013 100.595 112.176 97.7277 109.496C97.2333 109.042 96.4721 108.992 95.8394 109.388C95.3846 109.664 94.9001 109.803 94.4058 109.803C93.0514 109.803 91.8452 108.755 91.0939 106.935C90.8764 106.401 90.3425 106.026 89.7394 105.976C89.4527 105.956 89.1463 105.946 88.8398 105.946C88.2071 105.946 87.6336 106.342 87.3865 106.935C86.6252 108.755 85.429 109.803 84.0844 109.803C83.4912 109.803 82.8981 109.595 82.3741 109.19C82.0577 108.943 81.6919 108.824 81.3261 108.824L81.336 108.834Z" fill="black"/>
<path d="M93.8919 69.0508C87.9304 71.1966 66.0221 86.8401 72.7745 90.8251C75.3055 92.3183 79.349 92.6347 83.4222 92.4468C90.135 92.1403 96.9665 90.4494 103.59 87.6608L107.436 86.0391" fill="#075AA3"/>
<path d="M81.3663 93.4865C77.3524 93.4865 74.2975 92.8833 72.2708 91.677C70.9954 90.9254 70.3924 89.7685 70.5209 88.3347C71.1338 81.8182 88.5141 69.9421 93.5562 68.1227C94.0703 67.9348 94.6338 68.2018 94.8216 68.716C95.0095 69.2302 94.7425 69.7938 94.2284 69.9817C89.1963 71.7913 72.9826 83.3113 72.4982 88.5127C72.4388 89.1752 72.6662 89.6103 73.2792 89.9663C75.2861 91.1529 78.776 91.6671 83.3732 91.4495C89.8191 91.1529 96.4924 89.5707 103.205 86.7426L107.051 85.1209C107.555 84.9133 108.139 85.1506 108.346 85.645C108.554 86.1493 108.326 86.7327 107.822 86.9404L103.976 88.5621C97.0461 91.4792 90.1553 93.1207 83.4721 93.4272C82.7503 93.4569 82.0484 93.4767 81.3761 93.4767L81.3663 93.4865Z" fill="black"/>
<path d="M27.8419 45.9202C32.0844 45.9202 35.5236 44.3309 35.5236 42.3703C35.5236 40.4097 32.0844 38.8203 27.8419 38.8203C23.5994 38.8203 20.1602 40.4097 20.1602 42.3703C20.1602 44.3309 23.5994 45.9202 27.8419 45.9202Z" fill="#FFDEFF"/>
<path d="M83.0255 54.2562C87.268 54.2562 90.7072 52.6668 90.7072 50.7062C90.7072 48.7456 87.268 47.1562 83.0255 47.1562C78.783 47.1562 75.3438 48.7456 75.3438 50.7062C75.3438 52.6668 78.783 54.2562 83.0255 54.2562Z" fill="#FFDEFF"/>
<path d="M75.344 44.0841C77.4734 44.0841 79.1997 42.3575 79.1997 40.2276C79.1997 38.0977 77.4734 36.3711 75.344 36.3711C73.2145 36.3711 71.4883 38.0977 71.4883 40.2276C71.4883 42.3575 73.2145 44.0841 75.344 44.0841Z" fill="black"/>
<path d="M40.6838 37.8536C42.8133 37.8536 44.5395 36.127 44.5395 33.9971C44.5395 31.8672 42.8133 30.1406 40.6838 30.1406C38.5544 30.1406 36.8281 31.8672 36.8281 33.9971C36.8281 36.127 38.5544 37.8536 40.6838 37.8536Z" fill="black"/>
<path d="M58.0301 42.3711L51.0898 44.7641L56.6559 49.5501L63.5961 47.1571L58.0301 42.3711Z" fill="#FDF353"/>
<path d="M56.6577 50.0447C56.539 50.0447 56.4303 50.0051 56.3314 49.926L50.7654 45.14C50.627 45.0213 50.5676 44.8433 50.5973 44.6752C50.627 44.4972 50.7555 44.3588 50.9236 44.2995L57.8539 41.9065C58.022 41.8471 58.1999 41.8867 58.3383 41.9955L63.9044 46.7815C64.0428 46.9001 64.1021 47.0781 64.0725 47.2462C64.0428 47.4242 63.9143 47.5627 63.7462 47.622L56.806 50.015C56.7565 50.0348 56.6972 50.0447 56.6478 50.0447H56.6577ZM52.0704 44.9521L56.7664 48.9965L62.629 46.9792L57.9231 42.9349L52.0704 44.9521Z" fill="black"/>
<path d="M63.5966 47.6516C63.5966 47.6516 63.5373 47.6516 63.5076 47.6516L51.0014 45.2586C50.7344 45.2091 50.5565 44.952 50.6059 44.685C50.6553 44.418 50.9124 44.2401 51.1793 44.2895L63.6856 46.6825C63.9525 46.7319 64.1305 46.989 64.0811 47.256C64.0316 47.4934 63.824 47.6615 63.5966 47.6615V47.6516Z" fill="black"/>
<path d="M45.0449 19.6921L37.1152 17.6202C30.7758 15.9638 24.2943 19.7613 22.6382 26.102C20.9822 32.4427 24.7789 38.9256 31.1182 40.582L39.048 42.6538C45.3874 44.3102 51.8689 40.5128 53.525 34.1721C55.181 27.8313 51.3843 21.3484 45.0449 19.6921Z" fill="#F9F9F9"/>
<path d="M42.0442 44.0318C40.9567 44.0318 39.8692 43.8934 38.8014 43.6165L30.8725 41.5498C27.5606 40.6895 24.7825 38.5734 23.0425 35.6068C21.3025 32.6403 20.8181 29.1794 21.6881 25.8667C22.5482 22.5541 24.6639 19.7754 27.6298 18.0351C30.5957 16.2947 34.056 15.8102 37.3679 16.6804L45.2968 18.747C52.1579 20.5369 56.2707 27.5774 54.4813 34.4301C53.6211 37.7428 51.5054 40.5214 48.5395 42.2618C46.5326 43.4385 44.3082 44.0417 42.0442 44.0417V44.0318ZM34.1252 18.223C32.2171 18.223 30.3288 18.7372 28.6283 19.726C26.1172 21.1994 24.3278 23.5528 23.5962 26.3513C22.8646 29.1497 23.2699 32.0767 24.743 34.5883C26.2161 37.1 28.569 38.8898 31.3669 39.6216L39.2958 41.6882C42.0936 42.42 45.02 42.0146 47.5311 40.5412C50.0423 39.0678 51.8317 36.7144 52.5633 33.9159C53.2949 31.1175 52.8895 28.1905 51.4165 25.6788C49.9434 23.1672 47.5904 21.3774 44.7926 20.6456L36.8637 18.5789C35.9542 18.3416 35.0347 18.223 34.1252 18.223Z" fill="black"/>
<path d="M88.4854 29.3925L80.4507 27.775C74.0274 26.4819 67.7723 30.6418 66.4794 37.0664C65.1866 43.4911 69.3457 49.7476 75.769 51.0407L83.8037 52.6582C90.227 53.9513 96.4822 49.7913 97.775 43.3667C99.0678 36.942 94.9087 30.6856 88.4854 29.3925Z" fill="#F9F9F9"/>
<path d="M86.1476 53.8882C85.3072 53.8882 84.457 53.8091 83.6068 53.6311L75.579 52.0094C68.6289 50.6053 64.1207 43.8218 65.5147 36.8702C66.9185 29.9186 73.7105 25.4095 80.6507 26.8038L88.6785 28.4255C95.6286 29.8296 100.137 36.6131 98.7428 43.5647C97.5169 49.656 92.1387 53.8882 86.1476 53.8882ZM78.1099 28.5343C73.0382 28.5343 68.4905 32.104 67.4524 37.2657C66.266 43.1494 70.0921 48.8946 75.9646 50.0812L83.9923 51.7029C89.8648 52.8895 95.6187 49.0627 96.7952 43.1889C97.9816 37.3053 94.1555 31.5601 88.283 30.3735L80.2553 28.7518C79.5336 28.6035 78.8119 28.5343 78.1099 28.5343Z" fill="black"/>
<path d="M17.0287 19.1788L15.793 20.7227L22.6695 26.229L23.9053 24.6851L17.0287 19.1788Z" fill="black"/>
<path d="M105.341 37.9647L97.2852 42.5195L98.2582 44.2412L106.314 39.6863L105.341 37.9647Z" fill="black"/>
<path d="M53.7409 33.2069L53.3086 35.1367L66.2551 38.0383L66.6874 36.1085L53.7409 33.2069Z" fill="black"/>
<path d="M9.49219 55.1074C14.3365 50.7862 39.1019 37.6444 39.3392 44.7839C39.4282 47.4636 37.7178 51.0136 35.5527 54.4053C31.9738 60.0022 27.0999 65.2233 21.3559 69.8709L18.0143 72.5704" fill="#075AA3"/>
<path d="M18.0131 73.5696C17.7264 73.5696 17.4396 73.4411 17.2419 73.2038C16.8959 72.7786 16.9651 72.1556 17.3902 71.8095L20.7318 69.11C26.5648 64.3932 31.2707 59.271 34.7112 53.8817C37.1531 50.045 38.4087 46.9104 38.3395 44.8239C38.3197 44.2603 38.0923 44.0427 37.7562 43.9043C33.3765 42.0156 14.4045 52.0425 10.1336 55.8495C9.72826 56.2154 9.10542 56.1759 8.73962 55.7704C8.37382 55.365 8.41337 54.742 8.81871 54.3762C11.1519 52.2996 17.2914 48.6705 23.0947 45.9413C28.4037 43.4395 35.3933 40.7499 38.5273 42.0848C39.6346 42.5595 40.2673 43.5088 40.3069 44.7547C40.3959 47.2763 39.0711 50.7076 36.3622 54.9398C32.8031 60.507 27.9489 65.7874 21.9577 70.6427L18.6161 73.3422C18.4283 73.4905 18.2108 73.5598 17.9933 73.5598L18.0131 73.5696Z" fill="black"/>
</g>
<defs>
<clipPath id="clip0_928_2835">
<rect width="114" height="136.095" fill="white"/>
</clipPath>
</defs>
</svg>
